<svg width="717" height="146" xmlns="http://www.w3.org/2000/svg">
<style>.month-label, .wday-label, .year-label, .total-label, .user-label { font-family: -apple-system, BlinkMacSystemFont, "Segoe UI", Helvetica, Arial, sans-serif, "Apple Color Emoji", "Segoe UI Emoji"; font-size: 9px; fill: #767676; } .year-label { font-size: 14px; font-weight: 600; } .total-label { font-size: 11px; font-weight: 500; } .user-label { font-size: 10px; }</style>
<text x="0" y="15" class="year-label">2026</text>
<text x="712" y="15" class="total-label" text-anchor="end">共 21 条嘟文</text>
<text x="712" y="141" class="user-label" text-anchor="end">@Eyoz@mastodon.social</text>
<text x="0" y="58" class="wday-label">M</text>
<text x="0" y="84" class="wday-label">W</text>
<text x="0" y="110" class="wday-label">F</text>
<rect x="25" y="87" width="10" height="10" fill="#40c463" rx="2" ry="2"><title>2026-01-01: 3 posts</title></rect>
<rect x="25" y="100" width="10" height="10" fill="#9be9a8" rx="2" ry="2"><title>2026-01-02: 2 posts</title></rect>
<rect x="25" y="113" width="10" height="10" fill="#9be9a8" rx="2" ry="2"><title>2026-01-03: 1 post</title></rect>
<rect x="38" y="35" width="10" height="10" fill="#ebedf0" rx="2" ry="2"><title>2026-01-04: 0 posts</title></rect>
<rect x="38" y="48" width="10" height="10" fill="#ebedf0" rx="2" ry="2"><title>2026-01-05: 0 posts</title></rect>
<rect x="38" y="61" width="10" height="10" fill="#9be9a8" rx="2" ry="2"><title>2026-01-06: 1 post</title></rect>
<rect x="38" y="74" width="10" height="10" fill="#ebedf0" rx="2" ry="2"><title>2026-01-07: 0 posts</title></rect>
<rect x="38" y="87" width="10" height="10" fill="#ebedf0" rx="2" ry="2"><title>2026-01-08: 0 posts</title></rect>
<rect x="38" y="100" width="10" height="10" fill="#ebedf0" rx="2" ry="2"><title>2026-01-09: 0 posts</title></rect>
<rect x="38" y="113" width="10" height="10" fill="#9be9a8" rx="2" ry="2"><title>2026-01-10: 2 posts</title></rect>
<rect x="51" y="35" width="10" height="10" fill="#ebedf0" rx="2" ry="2"><title>2026-01-11: 0 posts</title></rect>
<rect x="51" y="48" width="10" height="10" fill="#9be9a8" rx="2" ry="2"><title>2026-01-12: 1 post</title></rect>
<rect x="51" y="61" width="10" height="10" fill="#ebedf0" rx="2" ry="2"><title>2026-01-13: 0 posts</title></rect>
<rect x="51" y="74" width="10" height="10" fill="#ebedf0" rx="2" ry="2"><title>2026-01-14: 0 posts</title></rect>
<rect x="51" y="87" width="10" height="10" fill="#ebedf0" rx="2" ry="2"><title>2026-01-15: 0 posts</title></rect>
<rect x="51" y="100" width="10" height="10" fill="#ebedf0" rx="2" ry="2"><title>2026-01-16: 0 posts</title></rect>
<rect x="51" y="113" width="10" height="10" fill="#9be9a8" rx="2" ry="2"><title>2026-01-17: 1 post</title></rect>
<rect x="64" y="35" width="10" height="10" fill="#9be9a8" rx="2" ry="2"><title>2026-01-18: 1 post</title></rect>
<rect x="64" y="48" width="10" height="10" fill="#40c463" rx="2" ry="2"><title>2026-01-19: 4 posts</title></rect>
<rect x="64" y="61" width="10" height="10" fill="#ebedf0" rx="2" ry="2"><title>2026-01-20: 0 posts</title></rect>
<rect x="64" y="74" width="10" height="10" fill="#9be9a8" rx="2" ry="2"><title>2026-01-21: 1 post</title></rect>
<rect x="64" y="87" width="10" height="10" fill="#9be9a8" rx="2" ry="2"><title>2026-01-22: 2 posts</title></rect>
<rect x="64" y="100" width="10" height="10" fill="#ebedf0" rx="2" ry="2"><title>2026-01-23: 0 posts</title></rect>
<rect x="64" y="113" width="10" height="10" fill="#9be9a8" rx="2" ry="2"><title>2026-01-24: 1 post</title></rect>
<rect x="77" y="35" width="10" height="10" fill="#ebedf0" rx="2" ry="2"><title>2026-01-25: 0 posts</title></rect>
<rect x="77" y="48" width="10" height="10" fill="#ebedf0" rx="2" ry="2"><title>2026-01-26: 0 posts</title></rect>
<rect x="77" y="61" width="10" height="10" fill="#ebedf0" rx="2" ry="2"><title>2026-01-27: 0 posts</title></rect>
<rect x="77" y="74" width="10" height="10" fill="#9be9a8" rx="2" ry="2"><title>2026-01-28: 1 post</title></rect>
<rect x="77" y="87" width="10" height="10" fill="#ebedf0" rx="2" ry="2"><title>2026-01-29: 0 posts</title></rect>
<rect x="77" y="100" width="10" height="10" fill="#ebedf0" rx="2" ry="2"><title>2026-01-30: 0 posts</title></rect>
<rect x="77" y="113" width="10" height="10" fill="#ebedf0" rx="2" ry="2"><title>2026-01-31: 0 posts</title></rect>
<rect x="90" y="35" width="10" height="10" fill="#ebedf0" rx="2" ry="2"><title>2026-02-01: 0 posts</title></rect>
<rect x="90" y="48" width="10" height="10" fill="#ebedf0" rx="2" ry="2"><title>2026-02-02: 0 posts</title></rect>
<rect x="90" y="61" width="10" height="10" fill="#ebedf0" rx="2" ry="2"><title>2026-02-03: 0 posts</title></rect>
<rect x="90" y="74" width="10" height="10" fill="#ebedf0" rx="2" ry="2"><title>2026-02-04: 0 posts</title></rect>
<rect x="90" y="87" width="10" height="10" fill="#ebedf0" rx="2" ry="2"><title>2026-02-05: 0 posts</title></rect>
<rect x="90" y="100" width="10" height="10" fill="#ebedf0" rx="2" ry="2"><title>2026-02-06: 0 posts</title></rect>
<rect x="90" y="113" width="10" height="10" fill="#ebedf0" rx="2" ry="2"><title>2026-02-07: 0 posts</title></rect>
<rect x="103" y="35" width="10" height="10" fill="#ebedf0" rx="2" ry="2"><title>2026-02-08: 0 posts</title></rect>
<rect x="103" y="48" width="10" height="10" fill="#ebedf0" rx="2" ry="2"><title>2026-02-09: 0 posts</title></rect>
<rect x="103" y="61" width="10" height="10" fill="#ebedf0" rx="2" ry="2"><title>2026-02-10: 0 posts</title></rect>
<rect x="103" y="74" width="10" height="10" fill="#ebedf0" rx="2" ry="2"><title>2026-02-11: 0 posts</title></rect>
<rect x="103" y="87" width="10" height="10" fill="#ebedf0" rx="2" ry="2"><title>2026-02-12: 0 posts</title></rect>
<rect x="103" y="100" width="10" height="10" fill="#ebedf0" rx="2" ry="2"><title>2026-02-13: 0 posts</title></rect>
<rect x="103" y="113" width="10" height="10" fill="#ebedf0" rx="2" ry="2"><title>2026-02-14: 0 posts</title></rect>
<rect x="116" y="35" width="10" height="10" fill="#ebedf0" rx="2" ry="2"><title>2026-02-15: 0 posts</title></rect>
<rect x="116" y="48" width="10" height="10" fill="#ebedf0" rx="2" ry="2"><title>2026-02-16: 0 posts</title></rect>
<rect x="116" y="61" width="10" height="10" fill="#ebedf0" rx="2" ry="2"><title>2026-02-17: 0 posts</title></rect>
<rect x="116" y="74" width="10" height="10" fill="#ebedf0" rx="2" ry="2"><title>2026-02-18: 0 posts</title></rect>
<rect x="116" y="87" width="10" height="10" fill="#ebedf0" rx="2" ry="2"><title>2026-02-19: 0 posts</title></rect>
<rect x="116" y="100" width="10" height="10" fill="#ebedf0" rx="2" ry="2"><title>2026-02-20: 0 posts</title></rect>
<rect x="116" y="113" width="10" height="10" fill="#ebedf0" rx="2" ry="2"><title>2026-02-21: 0 posts</title></rect>
<rect x="129" y="35" width="10" height="10" fill="#ebedf0" rx="2" ry="2"><title>2026-02-22: 0 posts</title></rect>
<rect x="129" y="48" width="10" height="10" fill="#ebedf0" rx="2" ry="2"><title>2026-02-23: 0 posts</title></rect>
<rect x="129" y="61" width="10" height="10" fill="#ebedf0" rx="2" ry="2"><title>2026-02-24: 0 posts</title></rect>
<rect x="129" y="74" width="10" height="10" fill="#ebedf0" rx="2" ry="2"><title>2026-02-25: 0 posts</title></rect>
<rect x="129" y="87" width="10" height="10" fill="#ebedf0" rx="2" ry="2"><title>2026-02-26: 0 posts</title></rect>
<rect x="129" y="100" width="10" height="10" fill="#ebedf0" rx="2" ry="2"><title>2026-02-27: 0 posts</title></rect>
<rect x="129" y="113" width="10" height="10" fill="#ebedf0" rx="2" ry="2"><title>2026-02-28: 0 posts</title></rect>
<rect x="142" y="35" width="10" height="10" fill="#ebedf0" rx="2" ry="2"><title>2026-03-01: 0 posts</title></rect>
<rect x="142" y="48" width="10" height="10" fill="#ebedf0" rx="2" ry="2"><title>2026-03-02: 0 posts</title></rect>
<rect x="142" y="61" width="10" height="10" fill="#ebedf0" rx="2" ry="2"><title>2026-03-03: 0 posts</title></rect>
<rect x="142" y="74" width="10" height="10" fill="#ebedf0" rx="2" ry="2"><title>2026-03-04: 0 posts</title></rect>
<rect x="142" y="87" width="10" height="10" fill="#ebedf0" rx="2" ry="2"><title>2026-03-05: 0 posts</title></rect>
<rect x="142" y="100" width="10" height="10" fill="#ebedf0" rx="2" ry="2"><title>2026-03-06: 0 posts</title></rect>
<rect x="142" y="113" width="10" height="10" fill="#ebedf0" rx="2" ry="2"><title>2026-03-07: 0 posts</title></rect>
<rect x="155" y="35" width="10" height="10" fill="#ebedf0" rx="2" ry="2"><title>2026-03-08: 0 posts</title></rect>
<rect x="155" y="48" width="10" height="10" fill="#ebedf0" rx="2" ry="2"><title>2026-03-09: 0 posts</title></rect>
<rect x="155" y="61" width="10" height="10" fill="#ebedf0" rx="2" ry="2"><title>2026-03-10: 0 posts</title></rect>
<rect x="155" y="74" width="10" height="10" fill="#ebedf0" rx="2" ry="2"><title>2026-03-11: 0 posts</title></rect>
<rect x="155" y="87" width="10" height="10" fill="#ebedf0" rx="2" ry="2"><title>2026-03-12: 0 posts</title></rect>
<rect x="155" y="100" width="10" height="10" fill="#ebedf0" rx="2" ry="2"><title>2026-03-13: 0 posts</title></rect>
<rect x="155" y="113" width="10" height="10" fill="#ebedf0" rx="2" ry="2"><title>2026-03-14: 0 posts</title></rect>
<rect x="168" y="35" width="10" height="10" fill="#ebedf0" rx="2" ry="2"><title>2026-03-15: 0 posts</title></rect>
<rect x="168" y="48" width="10" height="10" fill="#ebedf0" rx="2" ry="2"><title>2026-03-16: 0 posts</title></rect>
<rect x="168" y="61" width="10" height="10" fill="#ebedf0" rx="2" ry="2"><title>2026-03-17: 0 posts</title></rect>
<rect x="168" y="74" width="10" height="10" fill="#ebedf0" rx="2" ry="2"><title>2026-03-18: 0 posts</title></rect>
<rect x="168" y="87" width="10" height="10" fill="#ebedf0" rx="2" ry="2"><title>2026-03-19: 0 posts</title></rect>
<rect x="168" y="100" width="10" height="10" fill="#ebedf0" rx="2" ry="2"><title>2026-03-20: 0 posts</title></rect>
<rect x="168" y="113" width="10" height="10" fill="#ebedf0" rx="2" ry="2"><title>2026-03-21: 0 posts</title></rect>
<rect x="181" y="35" width="10" height="10" fill="#ebedf0" rx="2" ry="2"><title>2026-03-22: 0 posts</title></rect>
<rect x="181" y="48" width="10" height="10" fill="#ebedf0" rx="2" ry="2"><title>2026-03-23: 0 posts</title></rect>
<rect x="181" y="61" width="10" height="10" fill="#ebedf0" rx="2" ry="2"><title>2026-03-24: 0 posts</title></rect>
<rect x="181" y="74" width="10" height="10" fill="#ebedf0" rx="2" ry="2"><title>2026-03-25: 0 posts</title></rect>
<rect x="181" y="87" width="10" height="10" fill="#ebedf0" rx="2" ry="2"><title>2026-03-26: 0 posts</title></rect>
<rect x="181" y="100" width="10" height="10" fill="#ebedf0" rx="2" ry="2"><title>2026-03-27: 0 posts</title></rect>
<rect x="181" y="113" width="10" height="10" fill="#ebedf0" rx="2" ry="2"><title>2026-03-28: 0 posts</title></rect>
<rect x="194" y="35" width="10" height="10" fill="#ebedf0" rx="2" ry="2"><title>2026-03-29: 0 posts</title></rect>
<rect x="194" y="48" width="10" height="10" fill="#ebedf0" rx="2" ry="2"><title>2026-03-30: 0 posts</title></rect>
<rect x="194" y="61" width="10" height="10" fill="#ebedf0" rx="2" ry="2"><title>2026-03-31: 0 posts</title></rect>
<rect x="194" y="74" width="10" height="10" fill="#ebedf0" rx="2" ry="2"><title>2026-04-01: 0 posts</title></rect>
<rect x="194" y="87" width="10" height="10" fill="#ebedf0" rx="2" ry="2"><title>2026-04-02: 0 posts</title></rect>
<rect x="194" y="100" width="10" height="10" fill="#ebedf0" rx="2" ry="2"><title>2026-04-03: 0 posts</title></rect>
<rect x="194" y="113" width="10" height="10" fill="#ebedf0" rx="2" ry="2"><title>2026-04-04: 0 posts</title></rect>
<rect x="207" y="35" width="10" height="10" fill="#ebedf0" rx="2" ry="2"><title>2026-04-05: 0 posts</title></rect>
<rect x="207" y="48" width="10" height="10" fill="#ebedf0" rx="2" ry="2"><title>2026-04-06: 0 posts</title></rect>
<rect x="207" y="61" width="10" height="10" fill="#ebedf0" rx="2" ry="2"><title>2026-04-07: 0 posts</title></rect>
<rect x="207" y="74" width="10" height="10" fill="#ebedf0" rx="2" ry="2"><title>2026-04-08: 0 posts</title></rect>
<rect x="207" y="87" width="10" height="10" fill="#ebedf0" rx="2" ry="2"><title>2026-04-09: 0 posts</title></rect>
<rect x="207" y="100" width="10" height="10" fill="#ebedf0" rx="2" ry="2"><title>2026-04-10: 0 posts</title></rect>
<rect x="207" y="113" width="10" height="10" fill="#ebedf0" rx="2" ry="2"><title>2026-04-11: 0 posts</title></rect>
<rect x="220" y="35" width="10" height="10" fill="#ebedf0" rx="2" ry="2"><title>2026-04-12: 0 posts</title></rect>
<rect x="220" y="48" width="10" height="10" fill="#ebedf0" rx="2" ry="2"><title>2026-04-13: 0 posts</title></rect>
<rect x="220" y="61" width="10" height="10" fill="#ebedf0" rx="2" ry="2"><title>2026-04-14: 0 posts</title></rect>
<rect x="220" y="74" width="10" height="10" fill="#ebedf0" rx="2" ry="2"><title>2026-04-15: 0 posts</title></rect>
<rect x="220" y="87" width="10" height="10" fill="#ebedf0" rx="2" ry="2"><title>2026-04-16: 0 posts</title></rect>
<rect x="220" y="100" width="10" height="10" fill="#ebedf0" rx="2" ry="2"><title>2026-04-17: 0 posts</title></rect>
<rect x="220" y="113" width="10" height="10" fill="#ebedf0" rx="2" ry="2"><title>2026-04-18: 0 posts</title></rect>
<rect x="233" y="35" width="10" height="10" fill="#ebedf0" rx="2" ry="2"><title>2026-04-19: 0 posts</title></rect>
<rect x="233" y="48" width="10" height="10" fill="#ebedf0" rx="2" ry="2"><title>2026-04-20: 0 posts</title></rect>
<rect x="233" y="61" width="10" height="10" fill="#ebedf0" rx="2" ry="2"><title>2026-04-21: 0 posts</title></rect>
<rect x="233" y="74" width="10" height="10" fill="#ebedf0" rx="2" ry="2"><title>2026-04-22: 0 posts</title></rect>
<rect x="233" y="87" width="10" height="10" fill="#ebedf0" rx="2" ry="2"><title>2026-04-23: 0 posts</title></rect>
<rect x="233" y="100" width="10" height="10" fill="#ebedf0" rx="2" ry="2"><title>2026-04-24: 0 posts</title></rect>
<rect x="233" y="113" width="10" height="10" fill="#ebedf0" rx="2" ry="2"><title>2026-04-25: 0 posts</title></rect>
<rect x="246" y="35" width="10" height="10" fill="#ebedf0" rx="2" ry="2"><title>2026-04-26: 0 posts</title></rect>
<rect x="246" y="48" width="10" height="10" fill="#ebedf0" rx="2" ry="2"><title>2026-04-27: 0 posts</title></rect>
<rect x="246" y="61" width="10" height="10" fill="#ebedf0" rx="2" ry="2"><title>2026-04-28: 0 posts</title></rect>
<rect x="246" y="74" width="10" height="10" fill="#ebedf0" rx="2" ry="2"><title>2026-04-29: 0 posts</title></rect>
<rect x="246" y="87" width="10" height="10" fill="#ebedf0" rx="2" ry="2"><title>2026-04-30: 0 posts</title></rect>
<rect x="246" y="100" width="10" height="10" fill="#ebedf0" rx="2" ry="2"><title>2026-05-01: 0 posts</title></rect>
<rect x="246" y="113" width="10" height="10" fill="#ebedf0" rx="2" ry="2"><title>2026-05-02: 0 posts</title></rect>
<rect x="259" y="35" width="10" height="10" fill="#ebedf0" rx="2" ry="2"><title>2026-05-03: 0 posts</title></rect>
<rect x="259" y="48" width="10" height="10" fill="#ebedf0" rx="2" ry="2"><title>2026-05-04: 0 posts</title></rect>
<rect x="259" y="61" width="10" height="10" fill="#ebedf0" rx="2" ry="2"><title>2026-05-05: 0 posts</title></rect>
<rect x="259" y="74" width="10" height="10" fill="#ebedf0" rx="2" ry="2"><title>2026-05-06: 0 posts</title></rect>
<rect x="259" y="87" width="10" height="10" fill="#ebedf0" rx="2" ry="2"><title>2026-05-07: 0 posts</title></rect>
<rect x="259" y="100" width="10" height="10" fill="#ebedf0" rx="2" ry="2"><title>2026-05-08: 0 posts</title></rect>
<rect x="259" y="113" width="10" height="10" fill="#ebedf0" rx="2" ry="2"><title>2026-05-09: 0 posts</title></rect>
<rect x="272" y="35" width="10" height="10" fill="#ebedf0" rx="2" ry="2"><title>2026-05-10: 0 posts</title></rect>
<rect x="272" y="48" width="10" height="10" fill="#ebedf0" rx="2" ry="2"><title>2026-05-11: 0 posts</title></rect>
<rect x="272" y="61" width="10" height="10" fill="#ebedf0" rx="2" ry="2"><title>2026-05-12: 0 posts</title></rect>
<rect x="272" y="74" width="10" height="10" fill="#ebedf0" rx="2" ry="2"><title>2026-05-13: 0 posts</title></rect>
<rect x="272" y="87" width="10" height="10" fill="#ebedf0" rx="2" ry="2"><title>2026-05-14: 0 posts</title></rect>
<rect x="272" y="100" width="10" height="10" fill="#ebedf0" rx="2" ry="2"><title>2026-05-15: 0 posts</title></rect>
<rect x="272" y="113" width="10" height="10" fill="#ebedf0" rx="2" ry="2"><title>2026-05-16: 0 posts</title></rect>
<rect x="285" y="35" width="10" height="10" fill="#ebedf0" rx="2" ry="2"><title>2026-05-17: 0 posts</title></rect>
<rect x="285" y="48" width="10" height="10" fill="#ebedf0" rx="2" ry="2"><title>2026-05-18: 0 posts</title></rect>
<rect x="285" y="61" width="10" height="10" fill="#ebedf0" rx="2" ry="2"><title>2026-05-19: 0 posts</title></rect>
<rect x="285" y="74" width="10" height="10" fill="#ebedf0" rx="2" ry="2"><title>2026-05-20: 0 posts</title></rect>
<rect x="285" y="87" width="10" height="10" fill="#ebedf0" rx="2" ry="2"><title>2026-05-21: 0 posts</title></rect>
<rect x="285" y="100" width="10" height="10" fill="#ebedf0" rx="2" ry="2"><title>2026-05-22: 0 posts</title></rect>
<rect x="285" y="113" width="10" height="10" fill="#ebedf0" rx="2" ry="2"><title>2026-05-23: 0 posts</title></rect>
<rect x="298" y="35" width="10" height="10" fill="#ebedf0" rx="2" ry="2"><title>2026-05-24: 0 posts</title></rect>
<rect x="298" y="48" width="10" height="10" fill="#ebedf0" rx="2" ry="2"><title>2026-05-25: 0 posts</title></rect>
<rect x="298" y="61" width="10" height="10" fill="#ebedf0" rx="2" ry="2"><title>2026-05-26: 0 posts</title></rect>
<rect x="298" y="74" width="10" height="10" fill="#ebedf0" rx="2" ry="2"><title>2026-05-27: 0 posts</title></rect>
<rect x="298" y="87" width="10" height="10" fill="#ebedf0" rx="2" ry="2"><title>2026-05-28: 0 posts</title></rect>
<rect x="298" y="100" width="10" height="10" fill="#ebedf0" rx="2" ry="2"><title>2026-05-29: 0 posts</title></rect>
<rect x="298" y="113" width="10" height="10" fill="#ebedf0" rx="2" ry="2"><title>2026-05-30: 0 posts</title></rect>
<rect x="311" y="35" width="10" height="10" fill="#ebedf0" rx="2" ry="2"><title>2026-05-31: 0 posts</title></rect>
<rect x="311" y="48" width="10" height="10" fill="#ebedf0" rx="2" ry="2"><title>2026-06-01: 0 posts</title></rect>
<rect x="311" y="61" width="10" height="10" fill="#ebedf0" rx="2" ry="2"><title>2026-06-02: 0 posts</title></rect>
<rect x="311" y="74" width="10" height="10" fill="#ebedf0" rx="2" ry="2"><title>2026-06-03: 0 posts</title></rect>
<rect x="311" y="87" width="10" height="10" fill="#ebedf0" rx="2" ry="2"><title>2026-06-04: 0 posts</title></rect>
<rect x="311" y="100" width="10" height="10" fill="#ebedf0" rx="2" ry="2"><title>2026-06-05: 0 posts</title></rect>
<rect x="311" y="113" width="10" height="10" fill="#ebedf0" rx="2" ry="2"><title>2026-06-06: 0 posts</title></rect>
<rect x="324" y="35" width="10" height="10" fill="#ebedf0" rx="2" ry="2"><title>2026-06-07: 0 posts</title></rect>
<rect x="324" y="48" width="10" height="10" fill="#ebedf0" rx="2" ry="2"><title>2026-06-08: 0 posts</title></rect>
<rect x="324" y="61" width="10" height="10" fill="#ebedf0" rx="2" ry="2"><title>2026-06-09: 0 posts</title></rect>
<rect x="324" y="74" width="10" height="10" fill="#ebedf0" rx="2" ry="2"><title>2026-06-10: 0 posts</title></rect>
<rect x="324" y="87" width="10" height="10" fill="#ebedf0" rx="2" ry="2"><title>2026-06-11: 0 posts</title></rect>
<rect x="324" y="100" width="10" height="10" fill="#ebedf0" rx="2" ry="2"><title>2026-06-12: 0 posts</title></rect>
<rect x="324" y="113" width="10" height="10" fill="#ebedf0" rx="2" ry="2"><title>2026-06-13: 0 posts</title></rect>
<rect x="337" y="35" width="10" height="10" fill="#ebedf0" rx="2" ry="2"><title>2026-06-14: 0 posts</title></rect>
<rect x="337" y="48" width="10" height="10" fill="#ebedf0" rx="2" ry="2"><title>2026-06-15: 0 posts</title></rect>
<rect x="337" y="61" width="10" height="10" fill="#ebedf0" rx="2" ry="2"><title>2026-06-16: 0 posts</title></rect>
<rect x="337" y="74" width="10" height="10" fill="#ebedf0" rx="2" ry="2"><title>2026-06-17: 0 posts</title></rect>
<rect x="337" y="87" width="10" height="10" fill="#ebedf0" rx="2" ry="2"><title>2026-06-18: 0 posts</title></rect>
<rect x="337" y="100" width="10" height="10" fill="#ebedf0" rx="2" ry="2"><title>2026-06-19: 0 posts</title></rect>
<rect x="337" y="113" width="10" height="10" fill="#ebedf0" rx="2" ry="2"><title>2026-06-20: 0 posts</title></rect>
<rect x="350" y="35" width="10" height="10" fill="#ebedf0" rx="2" ry="2"><title>2026-06-21: 0 posts</title></rect>
<rect x="350" y="48" width="10" height="10" fill="#ebedf0" rx="2" ry="2"><title>2026-06-22: 0 posts</title></rect>
<rect x="350" y="61" width="10" height="10" fill="#ebedf0" rx="2" ry="2"><title>2026-06-23: 0 posts</title></rect>
<rect x="350" y="74" width="10" height="10" fill="#ebedf0" rx="2" ry="2"><title>2026-06-24: 0 posts</title></rect>
<rect x="350" y="87" width="10" height="10" fill="#ebedf0" rx="2" ry="2"><title>2026-06-25: 0 posts</title></rect>
<rect x="350" y="100" width="10" height="10" fill="#ebedf0" rx="2" ry="2"><title>2026-06-26: 0 posts</title></rect>
<rect x="350" y="113" width="10" height="10" fill="#ebedf0" rx="2" ry="2"><title>2026-06-27: 0 posts</title></rect>
<rect x="363" y="35" width="10" height="10" fill="#ebedf0" rx="2" ry="2"><title>2026-06-28: 0 posts</title></rect>
<rect x="363" y="48" width="10" height="10" fill="#ebedf0" rx="2" ry="2"><title>2026-06-29: 0 posts</title></rect>
<rect x="363" y="61" width="10" height="10" fill="#ebedf0" rx="2" ry="2"><title>2026-06-30: 0 posts</title></rect>
<rect x="363" y="74" width="10" height="10" fill="#ebedf0" rx="2" ry="2"><title>2026-07-01: 0 posts</title></rect>
<rect x="363" y="87" width="10" height="10" fill="#ebedf0" rx="2" ry="2"><title>2026-07-02: 0 posts</title></rect>
<rect x="363" y="100" width="10" height="10" fill="#ebedf0" rx="2" ry="2"><title>2026-07-03: 0 posts</title></rect>
<rect x="363" y="113" width="10" height="10" fill="#ebedf0" rx="2" ry="2"><title>2026-07-04: 0 posts</title></rect>
<rect x="376" y="35" width="10" height="10" fill="#ebedf0" rx="2" ry="2"><title>2026-07-05: 0 posts</title></rect>
<rect x="376" y="48" width="10" height="10" fill="#ebedf0" rx="2" ry="2"><title>2026-07-06: 0 posts</title></rect>
<rect x="376" y="61" width="10" height="10" fill="#ebedf0" rx="2" ry="2"><title>2026-07-07: 0 posts</title></rect>
<rect x="376" y="74" width="10" height="10" fill="#ebedf0" rx="2" ry="2"><title>2026-07-08: 0 posts</title></rect>
<rect x="376" y="87" width="10" height="10" fill="#ebedf0" rx="2" ry="2"><title>2026-07-09: 0 posts</title></rect>
<rect x="376" y="100" width="10" height="10" fill="#ebedf0" rx="2" ry="2"><title>2026-07-10: 0 posts</title></rect>
<rect x="376" y="113" width="10" height="10" fill="#ebedf0" rx="2" ry="2"><title>2026-07-11: 0 posts</title></rect>
<rect x="389" y="35" width="10" height="10" fill="#ebedf0" rx="2" ry="2"><title>2026-07-12: 0 posts</title></rect>
<rect x="389" y="48" width="10" height="10" fill="#ebedf0" rx="2" ry="2"><title>2026-07-13: 0 posts</title></rect>
<rect x="389" y="61" width="10" height="10" fill="#ebedf0" rx="2" ry="2"><title>2026-07-14: 0 posts</title></rect>
<rect x="389" y="74" width="10" height="10" fill="#ebedf0" rx="2" ry="2"><title>2026-07-15: 0 posts</title></rect>
<rect x="389" y="87" width="10" height="10" fill="#ebedf0" rx="2" ry="2"><title>2026-07-16: 0 posts</title></rect>
<rect x="389" y="100" width="10" height="10" fill="#ebedf0" rx="2" ry="2"><title>2026-07-17: 0 posts</title></rect>
<rect x="389" y="113" width="10" height="10" fill="#ebedf0" rx="2" ry="2"><title>2026-07-18: 0 posts</title></rect>
<rect x="402" y="35" width="10" height="10" fill="#ebedf0" rx="2" ry="2"><title>2026-07-19: 0 posts</title></rect>
<rect x="402" y="48" width="10" height="10" fill="#ebedf0" rx="2" ry="2"><title>2026-07-20: 0 posts</title></rect>
<rect x="402" y="61" width="10" height="10" fill="#ebedf0" rx="2" ry="2"><title>2026-07-21: 0 posts</title></rect>
<rect x="402" y="74" width="10" height="10" fill="#ebedf0" rx="2" ry="2"><title>2026-07-22: 0 posts</title></rect>
<rect x="402" y="87" width="10" height="10" fill="#ebedf0" rx="2" ry="2"><title>2026-07-23: 0 posts</title></rect>
<rect x="402" y="100" width="10" height="10" fill="#ebedf0" rx="2" ry="2"><title>2026-07-24: 0 posts</title></rect>
<rect x="402" y="113" width="10" height="10" fill="#ebedf0" rx="2" ry="2"><title>2026-07-25: 0 posts</title></rect>
<rect x="415" y="35" width="10" height="10" fill="#ebedf0" rx="2" ry="2"><title>2026-07-26: 0 posts</title></rect>
<rect x="415" y="48" width="10" height="10" fill="#ebedf0" rx="2" ry="2"><title>2026-07-27: 0 posts</title></rect>
<rect x="415" y="61" width="10" height="10" fill="#ebedf0" rx="2" ry="2"><title>2026-07-28: 0 posts</title></rect>
<rect x="415" y="74" width="10" height="10" fill="#ebedf0" rx="2" ry="2"><title>2026-07-29: 0 posts</title></rect>
<rect x="415" y="87" width="10" height="10" fill="#ebedf0" rx="2" ry="2"><title>2026-07-30: 0 posts</title></rect>
<rect x="415" y="100" width="10" height="10" fill="#ebedf0" rx="2" ry="2"><title>2026-07-31: 0 posts</title></rect>
<rect x="415" y="113" width="10" height="10" fill="#ebedf0" rx="2" ry="2"><title>2026-08-01: 0 posts</title></rect>
<rect x="428" y="35" width="10" height="10" fill="#ebedf0" rx="2" ry="2"><title>2026-08-02: 0 posts</title></rect>
<rect x="428" y="48" width="10" height="10" fill="#ebedf0" rx="2" ry="2"><title>2026-08-03: 0 posts</title></rect>
<rect x="428" y="61" width="10" height="10" fill="#ebedf0" rx="2" ry="2"><title>2026-08-04: 0 posts</title></rect>
<rect x="428" y="74" width="10" height="10" fill="#ebedf0" rx="2" ry="2"><title>2026-08-05: 0 posts</title></rect>
<rect x="428" y="87" width="10" height="10" fill="#ebedf0" rx="2" ry="2"><title>2026-08-06: 0 posts</title></rect>
<rect x="428" y="100" width="10" height="10" fill="#ebedf0" rx="2" ry="2"><title>2026-08-07: 0 posts</title></rect>
<rect x="428" y="113" width="10" height="10" fill="#ebedf0" rx="2" ry="2"><title>2026-08-08: 0 posts</title></rect>
<rect x="441" y="35" width="10" height="10" fill="#ebedf0" rx="2" ry="2"><title>2026-08-09: 0 posts</title></rect>
<rect x="441" y="48" width="10" height="10" fill="#ebedf0" rx="2" ry="2"><title>2026-08-10: 0 posts</title></rect>
<rect x="441" y="61" width="10" height="10" fill="#ebedf0" rx="2" ry="2"><title>2026-08-11: 0 posts</title></rect>
<rect x="441" y="74" width="10" height="10" fill="#ebedf0" rx="2" ry="2"><title>2026-08-12: 0 posts</title></rect>
<rect x="441" y="87" width="10" height="10" fill="#ebedf0" rx="2" ry="2"><title>2026-08-13: 0 posts</title></rect>
<rect x="441" y="100" width="10" height="10" fill="#ebedf0" rx="2" ry="2"><title>2026-08-14: 0 posts</title></rect>
<rect x="441" y="113" width="10" height="10" fill="#ebedf0" rx="2" ry="2"><title>2026-08-15: 0 posts</title></rect>
<rect x="454" y="35" width="10" height="10" fill="#ebedf0" rx="2" ry="2"><title>2026-08-16: 0 posts</title></rect>
<rect x="454" y="48" width="10" height="10" fill="#ebedf0" rx="2" ry="2"><title>2026-08-17: 0 posts</title></rect>
<rect x="454" y="61" width="10" height="10" fill="#ebedf0" rx="2" ry="2"><title>2026-08-18: 0 posts</title></rect>
<rect x="454" y="74" width="10" height="10" fill="#ebedf0" rx="2" ry="2"><title>2026-08-19: 0 posts</title></rect>
<rect x="454" y="87" width="10" height="10" fill="#ebedf0" rx="2" ry="2"><title>2026-08-20: 0 posts</title></rect>
<rect x="454" y="100" width="10" height="10" fill="#ebedf0" rx="2" ry="2"><title>2026-08-21: 0 posts</title></rect>
<rect x="454" y="113" width="10" height="10" fill="#ebedf0" rx="2" ry="2"><title>2026-08-22: 0 posts</title></rect>
<rect x="467" y="35" width="10" height="10" fill="#ebedf0" rx="2" ry="2"><title>2026-08-23: 0 posts</title></rect>
<rect x="467" y="48" width="10" height="10" fill="#ebedf0" rx="2" ry="2"><title>2026-08-24: 0 posts</title></rect>
<rect x="467" y="61" width="10" height="10" fill="#ebedf0" rx="2" ry="2"><title>2026-08-25: 0 posts</title></rect>
<rect x="467" y="74" width="10" height="10" fill="#ebedf0" rx="2" ry="2"><title>2026-08-26: 0 posts</title></rect>
<rect x="467" y="87" width="10" height="10" fill="#ebedf0" rx="2" ry="2"><title>2026-08-27: 0 posts</title></rect>
<rect x="467" y="100" width="10" height="10" fill="#ebedf0" rx="2" ry="2"><title>2026-08-28: 0 posts</title></rect>
<rect x="467" y="113" width="10" height="10" fill="#ebedf0" rx="2" ry="2"><title>2026-08-29: 0 posts</title></rect>
<rect x="480" y="35" width="10" height="10" fill="#ebedf0" rx="2" ry="2"><title>2026-08-30: 0 posts</title></rect>
<rect x="480" y="48" width="10" height="10" fill="#ebedf0" rx="2" ry="2"><title>2026-08-31: 0 posts</title></rect>
<rect x="480" y="61" width="10" height="10" fill="#ebedf0" rx="2" ry="2"><title>2026-09-01: 0 posts</title></rect>
<rect x="480" y="74" width="10" height="10" fill="#ebedf0" rx="2" ry="2"><title>2026-09-02: 0 posts</title></rect>
<rect x="480" y="87" width="10" height="10" fill="#ebedf0" rx="2" ry="2"><title>2026-09-03: 0 posts</title></rect>
<rect x="480" y="100" width="10" height="10" fill="#ebedf0" rx="2" ry="2"><title>2026-09-04: 0 posts</title></rect>
<rect x="480" y="113" width="10" height="10" fill="#ebedf0" rx="2" ry="2"><title>2026-09-05: 0 posts</title></rect>
<rect x="493" y="35" width="10" height="10" fill="#ebedf0" rx="2" ry="2"><title>2026-09-06: 0 posts</title></rect>
<rect x="493" y="48" width="10" height="10" fill="#ebedf0" rx="2" ry="2"><title>2026-09-07: 0 posts</title></rect>
<rect x="493" y="61" width="10" height="10" fill="#ebedf0" rx="2" ry="2"><title>2026-09-08: 0 posts</title></rect>
<rect x="493" y="74" width="10" height="10" fill="#ebedf0" rx="2" ry="2"><title>2026-09-09: 0 posts</title></rect>
<rect x="493" y="87" width="10" height="10" fill="#ebedf0" rx="2" ry="2"><title>2026-09-10: 0 posts</title></rect>
<rect x="493" y="100" width="10" height="10" fill="#ebedf0" rx="2" ry="2"><title>2026-09-11: 0 posts</title></rect>
<rect x="493" y="113" width="10" height="10" fill="#ebedf0" rx="2" ry="2"><title>2026-09-12: 0 posts</title></rect>
<rect x="506" y="35" width="10" height="10" fill="#ebedf0" rx="2" ry="2"><title>2026-09-13: 0 posts</title></rect>
<rect x="506" y="48" width="10" height="10" fill="#ebedf0" rx="2" ry="2"><title>2026-09-14: 0 posts</title></rect>
<rect x="506" y="61" width="10" height="10" fill="#ebedf0" rx="2" ry="2"><title>2026-09-15: 0 posts</title></rect>
<rect x="506" y="74" width="10" height="10" fill="#ebedf0" rx="2" ry="2"><title>2026-09-16: 0 posts</title></rect>
<rect x="506" y="87" width="10" height="10" fill="#ebedf0" rx="2" ry="2"><title>2026-09-17: 0 posts</title></rect>
<rect x="506" y="100" width="10" height="10" fill="#ebedf0" rx="2" ry="2"><title>2026-09-18: 0 posts</title></rect>
<rect x="506" y="113" width="10" height="10" fill="#ebedf0" rx="2" ry="2"><title>2026-09-19: 0 posts</title></rect>
<rect x="519" y="35" width="10" height="10" fill="#ebedf0" rx="2" ry="2"><title>2026-09-20: 0 posts</title></rect>
<rect x="519" y="48" width="10" height="10" fill="#ebedf0" rx="2" ry="2"><title>2026-09-21: 0 posts</title></rect>
<rect x="519" y="61" width="10" height="10" fill="#ebedf0" rx="2" ry="2"><title>2026-09-22: 0 posts</title></rect>
<rect x="519" y="74" width="10" height="10" fill="#ebedf0" rx="2" ry="2"><title>2026-09-23: 0 posts</title></rect>
<rect x="519" y="87" width="10" height="10" fill="#ebedf0" rx="2" ry="2"><title>2026-09-24: 0 posts</title></rect>
<rect x="519" y="100" width="10" height="10" fill="#ebedf0" rx="2" ry="2"><title>2026-09-25: 0 posts</title></rect>
<rect x="519" y="113" width="10" height="10" fill="#ebedf0" rx="2" ry="2"><title>2026-09-26: 0 posts</title></rect>
<rect x="532" y="35" width="10" height="10" fill="#ebedf0" rx="2" ry="2"><title>2026-09-27: 0 posts</title></rect>
<rect x="532" y="48" width="10" height="10" fill="#ebedf0" rx="2" ry="2"><title>2026-09-28: 0 posts</title></rect>
<rect x="532" y="61" width="10" height="10" fill="#ebedf0" rx="2" ry="2"><title>2026-09-29: 0 posts</title></rect>
<rect x="532" y="74" width="10" height="10" fill="#ebedf0" rx="2" ry="2"><title>2026-09-30: 0 posts</title></rect>
<rect x="532" y="87" width="10" height="10" fill="#ebedf0" rx="2" ry="2"><title>2026-10-01: 0 posts</title></rect>
<rect x="532" y="100" width="10" height="10" fill="#ebedf0" rx="2" ry="2"><title>2026-10-02: 0 posts</title></rect>
<rect x="532" y="113" width="10" height="10" fill="#ebedf0" rx="2" ry="2"><title>2026-10-03: 0 posts</title></rect>
<rect x="545" y="35" width="10" height="10" fill="#ebedf0" rx="2" ry="2"><title>2026-10-04: 0 posts</title></rect>
<rect x="545" y="48" width="10" height="10" fill="#ebedf0" rx="2" ry="2"><title>2026-10-05: 0 posts</title></rect>
<rect x="545" y="61" width="10" height="10" fill="#ebedf0" rx="2" ry="2"><title>2026-10-06: 0 posts</title></rect>
<rect x="545" y="74" width="10" height="10" fill="#ebedf0" rx="2" ry="2"><title>2026-10-07: 0 posts</title></rect>
<rect x="545" y="87" width="10" height="10" fill="#ebedf0" rx="2" ry="2"><title>2026-10-08: 0 posts</title></rect>
<rect x="545" y="100" width="10" height="10" fill="#ebedf0" rx="2" ry="2"><title>2026-10-09: 0 posts</title></rect>
<rect x="545" y="113" width="10" height="10" fill="#ebedf0" rx="2" ry="2"><title>2026-10-10: 0 posts</title></rect>
<rect x="558" y="35" width="10" height="10" fill="#ebedf0" rx="2" ry="2"><title>2026-10-11: 0 posts</title></rect>
<rect x="558" y="48" width="10" height="10" fill="#ebedf0" rx="2" ry="2"><title>2026-10-12: 0 posts</title></rect>
<rect x="558" y="61" width="10" height="10" fill="#ebedf0" rx="2" ry="2"><title>2026-10-13: 0 posts</title></rect>
<rect x="558" y="74" width="10" height="10" fill="#ebedf0" rx="2" ry="2"><title>2026-10-14: 0 posts</title></rect>
<rect x="558" y="87" width="10" height="10" fill="#ebedf0" rx="2" ry="2"><title>2026-10-15: 0 posts</title></rect>
<rect x="558" y="100" width="10" height="10" fill="#ebedf0" rx="2" ry="2"><title>2026-10-16: 0 posts</title></rect>
<rect x="558" y="113" width="10" height="10" fill="#ebedf0" rx="2" ry="2"><title>2026-10-17: 0 posts</title></rect>
<rect x="571" y="35" width="10" height="10" fill="#ebedf0" rx="2" ry="2"><title>2026-10-18: 0 posts</title></rect>
<rect x="571" y="48" width="10" height="10" fill="#ebedf0" rx="2" ry="2"><title>2026-10-19: 0 posts</title></rect>
<rect x="571" y="61" width="10" height="10" fill="#ebedf0" rx="2" ry="2"><title>2026-10-20: 0 posts</title></rect>
<rect x="571" y="74" width="10" height="10" fill="#ebedf0" rx="2" ry="2"><title>2026-10-21: 0 posts</title></rect>
<rect x="571" y="87" width="10" height="10" fill="#ebedf0" rx="2" ry="2"><title>2026-10-22: 0 posts</title></rect>
<rect x="571" y="100" width="10" height="10" fill="#ebedf0" rx="2" ry="2"><title>2026-10-23: 0 posts</title></rect>
<rect x="571" y="113" width="10" height="10" fill="#ebedf0" rx="2" ry="2"><title>2026-10-24: 0 posts</title></rect>
<rect x="584" y="35" width="10" height="10" fill="#ebedf0" rx="2" ry="2"><title>2026-10-25: 0 posts</title></rect>
<rect x="584" y="48" width="10" height="10" fill="#ebedf0" rx="2" ry="2"><title>2026-10-26: 0 posts</title></rect>
<rect x="584" y="61" width="10" height="10" fill="#ebedf0" rx="2" ry="2"><title>2026-10-27: 0 posts</title></rect>
<rect x="584" y="74" width="10" height="10" fill="#ebedf0" rx="2" ry="2"><title>2026-10-28: 0 posts</title></rect>
<rect x="584" y="87" width="10" height="10" fill="#ebedf0" rx="2" ry="2"><title>2026-10-29: 0 posts</title></rect>
<rect x="584" y="100" width="10" height="10" fill="#ebedf0" rx="2" ry="2"><title>2026-10-30: 0 posts</title></rect>
<rect x="584" y="113" width="10" height="10" fill="#ebedf0" rx="2" ry="2"><title>2026-10-31: 0 posts</title></rect>
<rect x="597" y="35" width="10" height="10" fill="#ebedf0" rx="2" ry="2"><title>2026-11-01: 0 posts</title></rect>
<rect x="597" y="48" width="10" height="10" fill="#ebedf0" rx="2" ry="2"><title>2026-11-02: 0 posts</title></rect>
<rect x="597" y="61" width="10" height="10" fill="#ebedf0" rx="2" ry="2"><title>2026-11-03: 0 posts</title></rect>
<rect x="597" y="74" width="10" height="10" fill="#ebedf0" rx="2" ry="2"><title>2026-11-04: 0 posts</title></rect>
<rect x="597" y="87" width="10" height="10" fill="#ebedf0" rx="2" ry="2"><title>2026-11-05: 0 posts</title></rect>
<rect x="597" y="100" width="10" height="10" fill="#ebedf0" rx="2" ry="2"><title>2026-11-06: 0 posts</title></rect>
<rect x="597" y="113" width="10" height="10" fill="#ebedf0" rx="2" ry="2"><title>2026-11-07: 0 posts</title></rect>
<rect x="610" y="35" width="10" height="10" fill="#ebedf0" rx="2" ry="2"><title>2026-11-08: 0 posts</title></rect>
<rect x="610" y="48" width="10" height="10" fill="#ebedf0" rx="2" ry="2"><title>2026-11-09: 0 posts</title></rect>
<rect x="610" y="61" width="10" height="10" fill="#ebedf0" rx="2" ry="2"><title>2026-11-10: 0 posts</title></rect>
<rect x="610" y="74" width="10" height="10" fill="#ebedf0" rx="2" ry="2"><title>2026-11-11: 0 posts</title></rect>
<rect x="610" y="87" width="10" height="10" fill="#ebedf0" rx="2" ry="2"><title>2026-11-12: 0 posts</title></rect>
<rect x="610" y="100" width="10" height="10" fill="#ebedf0" rx="2" ry="2"><title>2026-11-13: 0 posts</title></rect>
<rect x="610" y="113" width="10" height="10" fill="#ebedf0" rx="2" ry="2"><title>2026-11-14: 0 posts</title></rect>
<rect x="623" y="35" width="10" height="10" fill="#ebedf0" rx="2" ry="2"><title>2026-11-15: 0 posts</title></rect>
<rect x="623" y="48" width="10" height="10" fill="#ebedf0" rx="2" ry="2"><title>2026-11-16: 0 posts</title></rect>
<rect x="623" y="61" width="10" height="10" fill="#ebedf0" rx="2" ry="2"><title>2026-11-17: 0 posts</title></rect>
<rect x="623" y="74" width="10" height="10" fill="#ebedf0" rx="2" ry="2"><title>2026-11-18: 0 posts</title></rect>
<rect x="623" y="87" width="10" height="10" fill="#ebedf0" rx="2" ry="2"><title>2026-11-19: 0 posts</title></rect>
<rect x="623" y="100" width="10" height="10" fill="#ebedf0" rx="2" ry="2"><title>2026-11-20: 0 posts</title></rect>
<rect x="623" y="113" width="10" height="10" fill="#ebedf0" rx="2" ry="2"><title>2026-11-21: 0 posts</title></rect>
<rect x="636" y="35" width="10" height="10" fill="#ebedf0" rx="2" ry="2"><title>2026-11-22: 0 posts</title></rect>
<rect x="636" y="48" width="10" height="10" fill="#ebedf0" rx="2" ry="2"><title>2026-11-23: 0 posts</title></rect>
<rect x="636" y="61" width="10" height="10" fill="#ebedf0" rx="2" ry="2"><title>2026-11-24: 0 posts</title></rect>
<rect x="636" y="74" width="10" height="10" fill="#ebedf0" rx="2" ry="2"><title>2026-11-25: 0 posts</title></rect>
<rect x="636" y="87" width="10" height="10" fill="#ebedf0" rx="2" ry="2"><title>2026-11-26: 0 posts</title></rect>
<rect x="636" y="100" width="10" height="10" fill="#ebedf0" rx="2" ry="2"><title>2026-11-27: 0 posts</title></rect>
<rect x="636" y="113" width="10" height="10" fill="#ebedf0" rx="2" ry="2"><title>2026-11-28: 0 posts</title></rect>
<rect x="649" y="35" width="10" height="10" fill="#ebedf0" rx="2" ry="2"><title>2026-11-29: 0 posts</title></rect>
<rect x="649" y="48" width="10" height="10" fill="#ebedf0" rx="2" ry="2"><title>2026-11-30: 0 posts</title></rect>
<rect x="649" y="61" width="10" height="10" fill="#ebedf0" rx="2" ry="2"><title>2026-12-01: 0 posts</title></rect>
<rect x="649" y="74" width="10" height="10" fill="#ebedf0" rx="2" ry="2"><title>2026-12-02: 0 posts</title></rect>
<rect x="649" y="87" width="10" height="10" fill="#ebedf0" rx="2" ry="2"><title>2026-12-03: 0 posts</title></rect>
<rect x="649" y="100" width="10" height="10" fill="#ebedf0" rx="2" ry="2"><title>2026-12-04: 0 posts</title></rect>
<rect x="649" y="113" width="10" height="10" fill="#ebedf0" rx="2" ry="2"><title>2026-12-05: 0 posts</title></rect>
<rect x="662" y="35" width="10" height="10" fill="#ebedf0" rx="2" ry="2"><title>2026-12-06: 0 posts</title></rect>
<rect x="662" y="48" width="10" height="10" fill="#ebedf0" rx="2" ry="2"><title>2026-12-07: 0 posts</title></rect>
<rect x="662" y="61" width="10" height="10" fill="#ebedf0" rx="2" ry="2"><title>2026-12-08: 0 posts</title></rect>
<rect x="662" y="74" width="10" height="10" fill="#ebedf0" rx="2" ry="2"><title>2026-12-09: 0 posts</title></rect>
<rect x="662" y="87" width="10" height="10" fill="#ebedf0" rx="2" ry="2"><title>2026-12-10: 0 posts</title></rect>
<rect x="662" y="100" width="10" height="10" fill="#ebedf0" rx="2" ry="2"><title>2026-12-11: 0 posts</title></rect>
<rect x="662" y="113" width="10" height="10" fill="#ebedf0" rx="2" ry="2"><title>2026-12-12: 0 posts</title></rect>
<rect x="675" y="35" width="10" height="10" fill="#ebedf0" rx="2" ry="2"><title>2026-12-13: 0 posts</title></rect>
<rect x="675" y="48" width="10" height="10" fill="#ebedf0" rx="2" ry="2"><title>2026-12-14: 0 posts</title></rect>
<rect x="675" y="61" width="10" height="10" fill="#ebedf0" rx="2" ry="2"><title>2026-12-15: 0 posts</title></rect>
<rect x="675" y="74" width="10" height="10" fill="#ebedf0" rx="2" ry="2"><title>2026-12-16: 0 posts</title></rect>
<rect x="675" y="87" width="10" height="10" fill="#ebedf0" rx="2" ry="2"><title>2026-12-17: 0 posts</title></rect>
<rect x="675" y="100" width="10" height="10" fill="#ebedf0" rx="2" ry="2"><title>2026-12-18: 0 posts</title></rect>
<rect x="675" y="113" width="10" height="10" fill="#ebedf0" rx="2" ry="2"><title>2026-12-19: 0 posts</title></rect>
<rect x="688" y="35" width="10" height="10" fill="#ebedf0" rx="2" ry="2"><title>2026-12-20: 0 posts</title></rect>
<rect x="688" y="48" width="10" height="10" fill="#ebedf0" rx="2" ry="2"><title>2026-12-21: 0 posts</title></rect>
<rect x="688" y="61" width="10" height="10" fill="#ebedf0" rx="2" ry="2"><title>2026-12-22: 0 posts</title></rect>
<rect x="688" y="74" width="10" height="10" fill="#ebedf0" rx="2" ry="2"><title>2026-12-23: 0 posts</title></rect>
<rect x="688" y="87" width="10" height="10" fill="#ebedf0" rx="2" ry="2"><title>2026-12-24: 0 posts</title></rect>
<rect x="688" y="100" width="10" height="10" fill="#ebedf0" rx="2" ry="2"><title>2026-12-25: 0 posts</title></rect>
<rect x="688" y="113" width="10" height="10" fill="#ebedf0" rx="2" ry="2"><title>2026-12-26: 0 posts</title></rect>
<rect x="701" y="35" width="10" height="10" fill="#ebedf0" rx="2" ry="2"><title>2026-12-27: 0 posts</title></rect>
<rect x="701" y="48" width="10" height="10" fill="#ebedf0" rx="2" ry="2"><title>2026-12-28: 0 posts</title></rect>
<rect x="701" y="61" width="10" height="10" fill="#ebedf0" rx="2" ry="2"><title>2026-12-29: 0 posts</title></rect>
<rect x="701" y="74" width="10" height="10" fill="#ebedf0" rx="2" ry="2"><title>2026-12-30: 0 posts</title></rect>
<rect x="701" y="87" width="10" height="10" fill="#ebedf0" rx="2" ry="2"><title>2026-12-31: 0 posts</title></rect>
<text x="25" y="27" class="month-label">Jan</text>
<text x="90" y="27" class="month-label">Feb</text>
<text x="142" y="27" class="month-label">Mar</text>
<text x="194" y="27" class="month-label">Apr</text>
<text x="246" y="27" class="month-label">May</text>
<text x="311" y="27" class="month-label">Jun</text>
<text x="363" y="27" class="month-label">Jul</text>
<text x="415" y="27" class="month-label">Aug</text>
<text x="480" y="27" class="month-label">Sep</text>
<text x="532" y="27" class="month-label">Oct</text>
<text x="597" y="27" class="month-label">Nov</text>
<text x="649" y="27" class="month-label">Dec</text>
</svg>