<svg width="717" height="111" xmlns="http://www.w3.org/2000/svg">
<style>.month-label, .wday-label { font-family: -apple-system, BlinkMacSystemFont, "Segoe UI", Helvetica, Arial, sans-serif, "Apple Color Emoji", "Segoe UI Emoji"; font-size: 9px; fill: #767676; }</style>
<text x="0" y="43" class="wday-label">M</text>
<text x="0" y="69" class="wday-label">W</text>
<text x="0" y="95" class="wday-label">F</text>
<rect x="25" y="59" width="10" height="10" fill="#ebedf0" rx="2" ry="2"><title>2025-01-01: 0 posts</title></rect>
<rect x="25" y="72" width="10" height="10" fill="#ebedf0" rx="2" ry="2"><title>2025-01-02: 0 posts</title></rect>
<rect x="25" y="85" width="10" height="10" fill="#ebedf0" rx="2" ry="2"><title>2025-01-03: 0 posts</title></rect>
<rect x="25" y="98" width="10" height="10" fill="#ebedf0" rx="2" ry="2"><title>2025-01-04: 0 posts</title></rect>
<rect x="38" y="20" width="10" height="10" fill="#ebedf0" rx="2" ry="2"><title>2025-01-05: 0 posts</title></rect>
<rect x="38" y="33" width="10" height="10" fill="#ebedf0" rx="2" ry="2"><title>2025-01-06: 0 posts</title></rect>
<rect x="38" y="46" width="10" height="10" fill="#ebedf0" rx="2" ry="2"><title>2025-01-07: 0 posts</title></rect>
<rect x="38" y="59" width="10" height="10" fill="#ebedf0" rx="2" ry="2"><title>2025-01-08: 0 posts</title></rect>
<rect x="38" y="72" width="10" height="10" fill="#ebedf0" rx="2" ry="2"><title>2025-01-09: 0 posts</title></rect>
<rect x="38" y="85" width="10" height="10" fill="#ebedf0" rx="2" ry="2"><title>2025-01-10: 0 posts</title></rect>
<rect x="38" y="98" width="10" height="10" fill="#ebedf0" rx="2" ry="2"><title>2025-01-11: 0 posts</title></rect>
<rect x="51" y="20" width="10" height="10" fill="#ebedf0" rx="2" ry="2"><title>2025-01-12: 0 posts</title></rect>
<rect x="51" y="33" width="10" height="10" fill="#ebedf0" rx="2" ry="2"><title>2025-01-13: 0 posts</title></rect>
<rect x="51" y="46" width="10" height="10" fill="#ebedf0" rx="2" ry="2"><title>2025-01-14: 0 posts</title></rect>
<rect x="51" y="59" width="10" height="10" fill="#ebedf0" rx="2" ry="2"><title>2025-01-15: 0 posts</title></rect>
<rect x="51" y="72" width="10" height="10" fill="#ebedf0" rx="2" ry="2"><title>2025-01-16: 0 posts</title></rect>
<rect x="51" y="85" width="10" height="10" fill="#ebedf0" rx="2" ry="2"><title>2025-01-17: 0 posts</title></rect>
<rect x="51" y="98" width="10" height="10" fill="#ebedf0" rx="2" ry="2"><title>2025-01-18: 0 posts</title></rect>
<rect x="64" y="20" width="10" height="10" fill="#ebedf0" rx="2" ry="2"><title>2025-01-19: 0 posts</title></rect>
<rect x="64" y="33" width="10" height="10" fill="#ebedf0" rx="2" ry="2"><title>2025-01-20: 0 posts</title></rect>
<rect x="64" y="46" width="10" height="10" fill="#ebedf0" rx="2" ry="2"><title>2025-01-21: 0 posts</title></rect>
<rect x="64" y="59" width="10" height="10" fill="#ebedf0" rx="2" ry="2"><title>2025-01-22: 0 posts</title></rect>
<rect x="64" y="72" width="10" height="10" fill="#ebedf0" rx="2" ry="2"><title>2025-01-23: 0 posts</title></rect>
<rect x="64" y="85" width="10" height="10" fill="#ebedf0" rx="2" ry="2"><title>2025-01-24: 0 posts</title></rect>
<rect x="64" y="98" width="10" height="10" fill="#ebedf0" rx="2" ry="2"><title>2025-01-25: 0 posts</title></rect>
<rect x="77" y="20" width="10" height="10" fill="#ebedf0" rx="2" ry="2"><title>2025-01-26: 0 posts</title></rect>
<rect x="77" y="33" width="10" height="10" fill="#ebedf0" rx="2" ry="2"><title>2025-01-27: 0 posts</title></rect>
<rect x="77" y="46" width="10" height="10" fill="#ebedf0" rx="2" ry="2"><title>2025-01-28: 0 posts</title></rect>
<rect x="77" y="59" width="10" height="10" fill="#ebedf0" rx="2" ry="2"><title>2025-01-29: 0 posts</title></rect>
<rect x="77" y="72" width="10" height="10" fill="#ebedf0" rx="2" ry="2"><title>2025-01-30: 0 posts</title></rect>
<rect x="77" y="85" width="10" height="10" fill="#ebedf0" rx="2" ry="2"><title>2025-01-31: 0 posts</title></rect>
<rect x="77" y="98" width="10" height="10" fill="#ebedf0" rx="2" ry="2"><title>2025-02-01: 0 posts</title></rect>
<rect x="90" y="20" width="10" height="10" fill="#ebedf0" rx="2" ry="2"><title>2025-02-02: 0 posts</title></rect>
<rect x="90" y="33" width="10" height="10" fill="#ebedf0" rx="2" ry="2"><title>2025-02-03: 0 posts</title></rect>
<rect x="90" y="46" width="10" height="10" fill="#ebedf0" rx="2" ry="2"><title>2025-02-04: 0 posts</title></rect>
<rect x="90" y="59" width="10" height="10" fill="#ebedf0" rx="2" ry="2"><title>2025-02-05: 0 posts</title></rect>
<rect x="90" y="72" width="10" height="10" fill="#ebedf0" rx="2" ry="2"><title>2025-02-06: 0 posts</title></rect>
<rect x="90" y="85" width="10" height="10" fill="#ebedf0" rx="2" ry="2"><title>2025-02-07: 0 posts</title></rect>
<rect x="90" y="98" width="10" height="10" fill="#ebedf0" rx="2" ry="2"><title>2025-02-08: 0 posts</title></rect>
<rect x="103" y="20" width="10" height="10" fill="#ebedf0" rx="2" ry="2"><title>2025-02-09: 0 posts</title></rect>
<rect x="103" y="33" width="10" height="10" fill="#ebedf0" rx="2" ry="2"><title>2025-02-10: 0 posts</title></rect>
<rect x="103" y="46" width="10" height="10" fill="#ebedf0" rx="2" ry="2"><title>2025-02-11: 0 posts</title></rect>
<rect x="103" y="59" width="10" height="10" fill="#ebedf0" rx="2" ry="2"><title>2025-02-12: 0 posts</title></rect>
<rect x="103" y="72" width="10" height="10" fill="#ebedf0" rx="2" ry="2"><title>2025-02-13: 0 posts</title></rect>
<rect x="103" y="85" width="10" height="10" fill="#ebedf0" rx="2" ry="2"><title>2025-02-14: 0 posts</title></rect>
<rect x="103" y="98" width="10" height="10" fill="#ebedf0" rx="2" ry="2"><title>2025-02-15: 0 posts</title></rect>
<rect x="116" y="20" width="10" height="10" fill="#ebedf0" rx="2" ry="2"><title>2025-02-16: 0 posts</title></rect>
<rect x="116" y="33" width="10" height="10" fill="#ebedf0" rx="2" ry="2"><title>2025-02-17: 0 posts</title></rect>
<rect x="116" y="46" width="10" height="10" fill="#ebedf0" rx="2" ry="2"><title>2025-02-18: 0 posts</title></rect>
<rect x="116" y="59" width="10" height="10" fill="#ebedf0" rx="2" ry="2"><title>2025-02-19: 0 posts</title></rect>
<rect x="116" y="72" width="10" height="10" fill="#ebedf0" rx="2" ry="2"><title>2025-02-20: 0 posts</title></rect>
<rect x="116" y="85" width="10" height="10" fill="#ebedf0" rx="2" ry="2"><title>2025-02-21: 0 posts</title></rect>
<rect x="116" y="98" width="10" height="10" fill="#ebedf0" rx="2" ry="2"><title>2025-02-22: 0 posts</title></rect>
<rect x="129" y="20" width="10" height="10" fill="#ebedf0" rx="2" ry="2"><title>2025-02-23: 0 posts</title></rect>
<rect x="129" y="33" width="10" height="10" fill="#ebedf0" rx="2" ry="2"><title>2025-02-24: 0 posts</title></rect>
<rect x="129" y="46" width="10" height="10" fill="#ebedf0" rx="2" ry="2"><title>2025-02-25: 0 posts</title></rect>
<rect x="129" y="59" width="10" height="10" fill="#ebedf0" rx="2" ry="2"><title>2025-02-26: 0 posts</title></rect>
<rect x="129" y="72" width="10" height="10" fill="#ebedf0" rx="2" ry="2"><title>2025-02-27: 0 posts</title></rect>
<rect x="129" y="85" width="10" height="10" fill="#ebedf0" rx="2" ry="2"><title>2025-02-28: 0 posts</title></rect>
<rect x="129" y="98" width="10" height="10" fill="#ebedf0" rx="2" ry="2"><title>2025-03-01: 0 posts</title></rect>
<rect x="142" y="20" width="10" height="10" fill="#ebedf0" rx="2" ry="2"><title>2025-03-02: 0 posts</title></rect>
<rect x="142" y="33" width="10" height="10" fill="#ebedf0" rx="2" ry="2"><title>2025-03-03: 0 posts</title></rect>
<rect x="142" y="46" width="10" height="10" fill="#ebedf0" rx="2" ry="2"><title>2025-03-04: 0 posts</title></rect>
<rect x="142" y="59" width="10" height="10" fill="#ebedf0" rx="2" ry="2"><title>2025-03-05: 0 posts</title></rect>
<rect x="142" y="72" width="10" height="10" fill="#ebedf0" rx="2" ry="2"><title>2025-03-06: 0 posts</title></rect>
<rect x="142" y="85" width="10" height="10" fill="#ebedf0" rx="2" ry="2"><title>2025-03-07: 0 posts</title></rect>
<rect x="142" y="98" width="10" height="10" fill="#ebedf0" rx="2" ry="2"><title>2025-03-08: 0 posts</title></rect>
<rect x="155" y="20" width="10" height="10" fill="#ebedf0" rx="2" ry="2"><title>2025-03-09: 0 posts</title></rect>
<rect x="155" y="33" width="10" height="10" fill="#ebedf0" rx="2" ry="2"><title>2025-03-10: 0 posts</title></rect>
<rect x="155" y="46" width="10" height="10" fill="#ebedf0" rx="2" ry="2"><title>2025-03-11: 0 posts</title></rect>
<rect x="155" y="59" width="10" height="10" fill="#ebedf0" rx="2" ry="2"><title>2025-03-12: 0 posts</title></rect>
<rect x="155" y="72" width="10" height="10" fill="#ebedf0" rx="2" ry="2"><title>2025-03-13: 0 posts</title></rect>
<rect x="155" y="85" width="10" height="10" fill="#ebedf0" rx="2" ry="2"><title>2025-03-14: 0 posts</title></rect>
<rect x="155" y="98" width="10" height="10" fill="#ebedf0" rx="2" ry="2"><title>2025-03-15: 0 posts</title></rect>
<rect x="168" y="20" width="10" height="10" fill="#ebedf0" rx="2" ry="2"><title>2025-03-16: 0 posts</title></rect>
<rect x="168" y="33" width="10" height="10" fill="#ebedf0" rx="2" ry="2"><title>2025-03-17: 0 posts</title></rect>
<rect x="168" y="46" width="10" height="10" fill="#ebedf0" rx="2" ry="2"><title>2025-03-18: 0 posts</title></rect>
<rect x="168" y="59" width="10" height="10" fill="#ebedf0" rx="2" ry="2"><title>2025-03-19: 0 posts</title></rect>
<rect x="168" y="72" width="10" height="10" fill="#ebedf0" rx="2" ry="2"><title>2025-03-20: 0 posts</title></rect>
<rect x="168" y="85" width="10" height="10" fill="#ebedf0" rx="2" ry="2"><title>2025-03-21: 0 posts</title></rect>
<rect x="168" y="98" width="10" height="10" fill="#ebedf0" rx="2" ry="2"><title>2025-03-22: 0 posts</title></rect>
<rect x="181" y="20" width="10" height="10" fill="#ebedf0" rx="2" ry="2"><title>2025-03-23: 0 posts</title></rect>
<rect x="181" y="33" width="10" height="10" fill="#ebedf0" rx="2" ry="2"><title>2025-03-24: 0 posts</title></rect>
<rect x="181" y="46" width="10" height="10" fill="#ebedf0" rx="2" ry="2"><title>2025-03-25: 0 posts</title></rect>
<rect x="181" y="59" width="10" height="10" fill="#ebedf0" rx="2" ry="2"><title>2025-03-26: 0 posts</title></rect>
<rect x="181" y="72" width="10" height="10" fill="#ebedf0" rx="2" ry="2"><title>2025-03-27: 0 posts</title></rect>
<rect x="181" y="85" width="10" height="10" fill="#ebedf0" rx="2" ry="2"><title>2025-03-28: 0 posts</title></rect>
<rect x="181" y="98" width="10" height="10" fill="#ebedf0" rx="2" ry="2"><title>2025-03-29: 0 posts</title></rect>
<rect x="194" y="20" width="10" height="10" fill="#ebedf0" rx="2" ry="2"><title>2025-03-30: 0 posts</title></rect>
<rect x="194" y="33" width="10" height="10" fill="#ebedf0" rx="2" ry="2"><title>2025-03-31: 0 posts</title></rect>
<rect x="194" y="46" width="10" height="10" fill="#ebedf0" rx="2" ry="2"><title>2025-04-01: 0 posts</title></rect>
<rect x="194" y="59" width="10" height="10" fill="#ebedf0" rx="2" ry="2"><title>2025-04-02: 0 posts</title></rect>
<rect x="194" y="72" width="10" height="10" fill="#ebedf0" rx="2" ry="2"><title>2025-04-03: 0 posts</title></rect>
<rect x="194" y="85" width="10" height="10" fill="#ebedf0" rx="2" ry="2"><title>2025-04-04: 0 posts</title></rect>
<rect x="194" y="98" width="10" height="10" fill="#ebedf0" rx="2" ry="2"><title>2025-04-05: 0 posts</title></rect>
<rect x="207" y="20" width="10" height="10" fill="#ebedf0" rx="2" ry="2"><title>2025-04-06: 0 posts</title></rect>
<rect x="207" y="33" width="10" height="10" fill="#ebedf0" rx="2" ry="2"><title>2025-04-07: 0 posts</title></rect>
<rect x="207" y="46" width="10" height="10" fill="#ebedf0" rx="2" ry="2"><title>2025-04-08: 0 posts</title></rect>
<rect x="207" y="59" width="10" height="10" fill="#ebedf0" rx="2" ry="2"><title>2025-04-09: 0 posts</title></rect>
<rect x="207" y="72" width="10" height="10" fill="#ebedf0" rx="2" ry="2"><title>2025-04-10: 0 posts</title></rect>
<rect x="207" y="85" width="10" height="10" fill="#ebedf0" rx="2" ry="2"><title>2025-04-11: 0 posts</title></rect>
<rect x="207" y="98" width="10" height="10" fill="#ebedf0" rx="2" ry="2"><title>2025-04-12: 0 posts</title></rect>
<rect x="220" y="20" width="10" height="10" fill="#ebedf0" rx="2" ry="2"><title>2025-04-13: 0 posts</title></rect>
<rect x="220" y="33" width="10" height="10" fill="#ebedf0" rx="2" ry="2"><title>2025-04-14: 0 posts</title></rect>
<rect x="220" y="46" width="10" height="10" fill="#ebedf0" rx="2" ry="2"><title>2025-04-15: 0 posts</title></rect>
<rect x="220" y="59" width="10" height="10" fill="#ebedf0" rx="2" ry="2"><title>2025-04-16: 0 posts</title></rect>
<rect x="220" y="72" width="10" height="10" fill="#ebedf0" rx="2" ry="2"><title>2025-04-17: 0 posts</title></rect>
<rect x="220" y="85" width="10" height="10" fill="#ebedf0" rx="2" ry="2"><title>2025-04-18: 0 posts</title></rect>
<rect x="220" y="98" width="10" height="10" fill="#ebedf0" rx="2" ry="2"><title>2025-04-19: 0 posts</title></rect>
<rect x="233" y="20" width="10" height="10" fill="#ebedf0" rx="2" ry="2"><title>2025-04-20: 0 posts</title></rect>
<rect x="233" y="33" width="10" height="10" fill="#ebedf0" rx="2" ry="2"><title>2025-04-21: 0 posts</title></rect>
<rect x="233" y="46" width="10" height="10" fill="#ebedf0" rx="2" ry="2"><title>2025-04-22: 0 posts</title></rect>
<rect x="233" y="59" width="10" height="10" fill="#ebedf0" rx="2" ry="2"><title>2025-04-23: 0 posts</title></rect>
<rect x="233" y="72" width="10" height="10" fill="#ebedf0" rx="2" ry="2"><title>2025-04-24: 0 posts</title></rect>
<rect x="233" y="85" width="10" height="10" fill="#ebedf0" rx="2" ry="2"><title>2025-04-25: 0 posts</title></rect>
<rect x="233" y="98" width="10" height="10" fill="#ebedf0" rx="2" ry="2"><title>2025-04-26: 0 posts</title></rect>
<rect x="246" y="20" width="10" height="10" fill="#ebedf0" rx="2" ry="2"><title>2025-04-27: 0 posts</title></rect>
<rect x="246" y="33" width="10" height="10" fill="#ebedf0" rx="2" ry="2"><title>2025-04-28: 0 posts</title></rect>
<rect x="246" y="46" width="10" height="10" fill="#ebedf0" rx="2" ry="2"><title>2025-04-29: 0 posts</title></rect>
<rect x="246" y="59" width="10" height="10" fill="#ebedf0" rx="2" ry="2"><title>2025-04-30: 0 posts</title></rect>
<rect x="246" y="72" width="10" height="10" fill="#ebedf0" rx="2" ry="2"><title>2025-05-01: 0 posts</title></rect>
<rect x="246" y="85" width="10" height="10" fill="#ebedf0" rx="2" ry="2"><title>2025-05-02: 0 posts</title></rect>
<rect x="246" y="98" width="10" height="10" fill="#ebedf0" rx="2" ry="2"><title>2025-05-03: 0 posts</title></rect>
<rect x="259" y="20" width="10" height="10" fill="#ebedf0" rx="2" ry="2"><title>2025-05-04: 0 posts</title></rect>
<rect x="259" y="33" width="10" height="10" fill="#ebedf0" rx="2" ry="2"><title>2025-05-05: 0 posts</title></rect>
<rect x="259" y="46" width="10" height="10" fill="#ebedf0" rx="2" ry="2"><title>2025-05-06: 0 posts</title></rect>
<rect x="259" y="59" width="10" height="10" fill="#ebedf0" rx="2" ry="2"><title>2025-05-07: 0 posts</title></rect>
<rect x="259" y="72" width="10" height="10" fill="#ebedf0" rx="2" ry="2"><title>2025-05-08: 0 posts</title></rect>
<rect x="259" y="85" width="10" height="10" fill="#ebedf0" rx="2" ry="2"><title>2025-05-09: 0 posts</title></rect>
<rect x="259" y="98" width="10" height="10" fill="#ebedf0" rx="2" ry="2"><title>2025-05-10: 0 posts</title></rect>
<rect x="272" y="20" width="10" height="10" fill="#ebedf0" rx="2" ry="2"><title>2025-05-11: 0 posts</title></rect>
<rect x="272" y="33" width="10" height="10" fill="#ebedf0" rx="2" ry="2"><title>2025-05-12: 0 posts</title></rect>
<rect x="272" y="46" width="10" height="10" fill="#ebedf0" rx="2" ry="2"><title>2025-05-13: 0 posts</title></rect>
<rect x="272" y="59" width="10" height="10" fill="#ebedf0" rx="2" ry="2"><title>2025-05-14: 0 posts</title></rect>
<rect x="272" y="72" width="10" height="10" fill="#ebedf0" rx="2" ry="2"><title>2025-05-15: 0 posts</title></rect>
<rect x="272" y="85" width="10" height="10" fill="#ebedf0" rx="2" ry="2"><title>2025-05-16: 0 posts</title></rect>
<rect x="272" y="98" width="10" height="10" fill="#ebedf0" rx="2" ry="2"><title>2025-05-17: 0 posts</title></rect>
<rect x="285" y="20" width="10" height="10" fill="#ebedf0" rx="2" ry="2"><title>2025-05-18: 0 posts</title></rect>
<rect x="285" y="33" width="10" height="10" fill="#ebedf0" rx="2" ry="2"><title>2025-05-19: 0 posts</title></rect>
<rect x="285" y="46" width="10" height="10" fill="#ebedf0" rx="2" ry="2"><title>2025-05-20: 0 posts</title></rect>
<rect x="285" y="59" width="10" height="10" fill="#ebedf0" rx="2" ry="2"><title>2025-05-21: 0 posts</title></rect>
<rect x="285" y="72" width="10" height="10" fill="#ebedf0" rx="2" ry="2"><title>2025-05-22: 0 posts</title></rect>
<rect x="285" y="85" width="10" height="10" fill="#ebedf0" rx="2" ry="2"><title>2025-05-23: 0 posts</title></rect>
<rect x="285" y="98" width="10" height="10" fill="#ebedf0" rx="2" ry="2"><title>2025-05-24: 0 posts</title></rect>
<rect x="298" y="20" width="10" height="10" fill="#ebedf0" rx="2" ry="2"><title>2025-05-25: 0 posts</title></rect>
<rect x="298" y="33" width="10" height="10" fill="#ebedf0" rx="2" ry="2"><title>2025-05-26: 0 posts</title></rect>
<rect x="298" y="46" width="10" height="10" fill="#ebedf0" rx="2" ry="2"><title>2025-05-27: 0 posts</title></rect>
<rect x="298" y="59" width="10" height="10" fill="#ebedf0" rx="2" ry="2"><title>2025-05-28: 0 posts</title></rect>
<rect x="298" y="72" width="10" height="10" fill="#ebedf0" rx="2" ry="2"><title>2025-05-29: 0 posts</title></rect>
<rect x="298" y="85" width="10" height="10" fill="#ebedf0" rx="2" ry="2"><title>2025-05-30: 0 posts</title></rect>
<rect x="298" y="98" width="10" height="10" fill="#ebedf0" rx="2" ry="2"><title>2025-05-31: 0 posts</title></rect>
<rect x="311" y="20" width="10" height="10" fill="#ebedf0" rx="2" ry="2"><title>2025-06-01: 0 posts</title></rect>
<rect x="311" y="33" width="10" height="10" fill="#ebedf0" rx="2" ry="2"><title>2025-06-02: 0 posts</title></rect>
<rect x="311" y="46" width="10" height="10" fill="#ebedf0" rx="2" ry="2"><title>2025-06-03: 0 posts</title></rect>
<rect x="311" y="59" width="10" height="10" fill="#ebedf0" rx="2" ry="2"><title>2025-06-04: 0 posts</title></rect>
<rect x="311" y="72" width="10" height="10" fill="#ebedf0" rx="2" ry="2"><title>2025-06-05: 0 posts</title></rect>
<rect x="311" y="85" width="10" height="10" fill="#ebedf0" rx="2" ry="2"><title>2025-06-06: 0 posts</title></rect>
<rect x="311" y="98" width="10" height="10" fill="#ebedf0" rx="2" ry="2"><title>2025-06-07: 0 posts</title></rect>
<rect x="324" y="20" width="10" height="10" fill="#ebedf0" rx="2" ry="2"><title>2025-06-08: 0 posts</title></rect>
<rect x="324" y="33" width="10" height="10" fill="#ebedf0" rx="2" ry="2"><title>2025-06-09: 0 posts</title></rect>
<rect x="324" y="46" width="10" height="10" fill="#ebedf0" rx="2" ry="2"><title>2025-06-10: 0 posts</title></rect>
<rect x="324" y="59" width="10" height="10" fill="#ebedf0" rx="2" ry="2"><title>2025-06-11: 0 posts</title></rect>
<rect x="324" y="72" width="10" height="10" fill="#ebedf0" rx="2" ry="2"><title>2025-06-12: 0 posts</title></rect>
<rect x="324" y="85" width="10" height="10" fill="#ebedf0" rx="2" ry="2"><title>2025-06-13: 0 posts</title></rect>
<rect x="324" y="98" width="10" height="10" fill="#ebedf0" rx="2" ry="2"><title>2025-06-14: 0 posts</title></rect>
<rect x="337" y="20" width="10" height="10" fill="#ebedf0" rx="2" ry="2"><title>2025-06-15: 0 posts</title></rect>
<rect x="337" y="33" width="10" height="10" fill="#ebedf0" rx="2" ry="2"><title>2025-06-16: 0 posts</title></rect>
<rect x="337" y="46" width="10" height="10" fill="#ebedf0" rx="2" ry="2"><title>2025-06-17: 0 posts</title></rect>
<rect x="337" y="59" width="10" height="10" fill="#ebedf0" rx="2" ry="2"><title>2025-06-18: 0 posts</title></rect>
<rect x="337" y="72" width="10" height="10" fill="#ebedf0" rx="2" ry="2"><title>2025-06-19: 0 posts</title></rect>
<rect x="337" y="85" width="10" height="10" fill="#ebedf0" rx="2" ry="2"><title>2025-06-20: 0 posts</title></rect>
<rect x="337" y="98" width="10" height="10" fill="#ebedf0" rx="2" ry="2"><title>2025-06-21: 0 posts</title></rect>
<rect x="350" y="20" width="10" height="10" fill="#ebedf0" rx="2" ry="2"><title>2025-06-22: 0 posts</title></rect>
<rect x="350" y="33" width="10" height="10" fill="#ebedf0" rx="2" ry="2"><title>2025-06-23: 0 posts</title></rect>
<rect x="350" y="46" width="10" height="10" fill="#ebedf0" rx="2" ry="2"><title>2025-06-24: 0 posts</title></rect>
<rect x="350" y="59" width="10" height="10" fill="#ebedf0" rx="2" ry="2"><title>2025-06-25: 0 posts</title></rect>
<rect x="350" y="72" width="10" height="10" fill="#ebedf0" rx="2" ry="2"><title>2025-06-26: 0 posts</title></rect>
<rect x="350" y="85" width="10" height="10" fill="#ebedf0" rx="2" ry="2"><title>2025-06-27: 0 posts</title></rect>
<rect x="350" y="98" width="10" height="10" fill="#ebedf0" rx="2" ry="2"><title>2025-06-28: 0 posts</title></rect>
<rect x="363" y="20" width="10" height="10" fill="#ebedf0" rx="2" ry="2"><title>2025-06-29: 0 posts</title></rect>
<rect x="363" y="33" width="10" height="10" fill="#ebedf0" rx="2" ry="2"><title>2025-06-30: 0 posts</title></rect>
<rect x="363" y="46" width="10" height="10" fill="#ebedf0" rx="2" ry="2"><title>2025-07-01: 0 posts</title></rect>
<rect x="363" y="59" width="10" height="10" fill="#ebedf0" rx="2" ry="2"><title>2025-07-02: 0 posts</title></rect>
<rect x="363" y="72" width="10" height="10" fill="#ebedf0" rx="2" ry="2"><title>2025-07-03: 0 posts</title></rect>
<rect x="363" y="85" width="10" height="10" fill="#ebedf0" rx="2" ry="2"><title>2025-07-04: 0 posts</title></rect>
<rect x="363" y="98" width="10" height="10" fill="#ebedf0" rx="2" ry="2"><title>2025-07-05: 0 posts</title></rect>
<rect x="376" y="20" width="10" height="10" fill="#ebedf0" rx="2" ry="2"><title>2025-07-06: 0 posts</title></rect>
<rect x="376" y="33" width="10" height="10" fill="#ebedf0" rx="2" ry="2"><title>2025-07-07: 0 posts</title></rect>
<rect x="376" y="46" width="10" height="10" fill="#ebedf0" rx="2" ry="2"><title>2025-07-08: 0 posts</title></rect>
<rect x="376" y="59" width="10" height="10" fill="#ebedf0" rx="2" ry="2"><title>2025-07-09: 0 posts</title></rect>
<rect x="376" y="72" width="10" height="10" fill="#ebedf0" rx="2" ry="2"><title>2025-07-10: 0 posts</title></rect>
<rect x="376" y="85" width="10" height="10" fill="#ebedf0" rx="2" ry="2"><title>2025-07-11: 0 posts</title></rect>
<rect x="376" y="98" width="10" height="10" fill="#ebedf0" rx="2" ry="2"><title>2025-07-12: 0 posts</title></rect>
<rect x="389" y="20" width="10" height="10" fill="#ebedf0" rx="2" ry="2"><title>2025-07-13: 0 posts</title></rect>
<rect x="389" y="33" width="10" height="10" fill="#ebedf0" rx="2" ry="2"><title>2025-07-14: 0 posts</title></rect>
<rect x="389" y="46" width="10" height="10" fill="#ebedf0" rx="2" ry="2"><title>2025-07-15: 0 posts</title></rect>
<rect x="389" y="59" width="10" height="10" fill="#ebedf0" rx="2" ry="2"><title>2025-07-16: 0 posts</title></rect>
<rect x="389" y="72" width="10" height="10" fill="#ebedf0" rx="2" ry="2"><title>2025-07-17: 0 posts</title></rect>
<rect x="389" y="85" width="10" height="10" fill="#ebedf0" rx="2" ry="2"><title>2025-07-18: 0 posts</title></rect>
<rect x="389" y="98" width="10" height="10" fill="#ebedf0" rx="2" ry="2"><title>2025-07-19: 0 posts</title></rect>
<rect x="402" y="20" width="10" height="10" fill="#ebedf0" rx="2" ry="2"><title>2025-07-20: 0 posts</title></rect>
<rect x="402" y="33" width="10" height="10" fill="#ebedf0" rx="2" ry="2"><title>2025-07-21: 0 posts</title></rect>
<rect x="402" y="46" width="10" height="10" fill="#ebedf0" rx="2" ry="2"><title>2025-07-22: 0 posts</title></rect>
<rect x="402" y="59" width="10" height="10" fill="#ebedf0" rx="2" ry="2"><title>2025-07-23: 0 posts</title></rect>
<rect x="402" y="72" width="10" height="10" fill="#ebedf0" rx="2" ry="2"><title>2025-07-24: 0 posts</title></rect>
<rect x="402" y="85" width="10" height="10" fill="#ebedf0" rx="2" ry="2"><title>2025-07-25: 0 posts</title></rect>
<rect x="402" y="98" width="10" height="10" fill="#ebedf0" rx="2" ry="2"><title>2025-07-26: 0 posts</title></rect>
<rect x="415" y="20" width="10" height="10" fill="#ebedf0" rx="2" ry="2"><title>2025-07-27: 0 posts</title></rect>
<rect x="415" y="33" width="10" height="10" fill="#ebedf0" rx="2" ry="2"><title>2025-07-28: 0 posts</title></rect>
<rect x="415" y="46" width="10" height="10" fill="#ebedf0" rx="2" ry="2"><title>2025-07-29: 0 posts</title></rect>
<rect x="415" y="59" width="10" height="10" fill="#ebedf0" rx="2" ry="2"><title>2025-07-30: 0 posts</title></rect>
<rect x="415" y="72" width="10" height="10" fill="#ebedf0" rx="2" ry="2"><title>2025-07-31: 0 posts</title></rect>
<rect x="415" y="85" width="10" height="10" fill="#ebedf0" rx="2" ry="2"><title>2025-08-01: 0 posts</title></rect>
<rect x="415" y="98" width="10" height="10" fill="#ebedf0" rx="2" ry="2"><title>2025-08-02: 0 posts</title></rect>
<rect x="428" y="20" width="10" height="10" fill="#ebedf0" rx="2" ry="2"><title>2025-08-03: 0 posts</title></rect>
<rect x="428" y="33" width="10" height="10" fill="#ebedf0" rx="2" ry="2"><title>2025-08-04: 0 posts</title></rect>
<rect x="428" y="46" width="10" height="10" fill="#ebedf0" rx="2" ry="2"><title>2025-08-05: 0 posts</title></rect>
<rect x="428" y="59" width="10" height="10" fill="#ebedf0" rx="2" ry="2"><title>2025-08-06: 0 posts</title></rect>
<rect x="428" y="72" width="10" height="10" fill="#ebedf0" rx="2" ry="2"><title>2025-08-07: 0 posts</title></rect>
<rect x="428" y="85" width="10" height="10" fill="#ebedf0" rx="2" ry="2"><title>2025-08-08: 0 posts</title></rect>
<rect x="428" y="98" width="10" height="10" fill="#ebedf0" rx="2" ry="2"><title>2025-08-09: 0 posts</title></rect>
<rect x="441" y="20" width="10" height="10" fill="#ebedf0" rx="2" ry="2"><title>2025-08-10: 0 posts</title></rect>
<rect x="441" y="33" width="10" height="10" fill="#ebedf0" rx="2" ry="2"><title>2025-08-11: 0 posts</title></rect>
<rect x="441" y="46" width="10" height="10" fill="#9be9a8" rx="2" ry="2"><title>2025-08-12: 2 posts</title></rect>
<rect x="441" y="59" width="10" height="10" fill="#ebedf0" rx="2" ry="2"><title>2025-08-13: 0 posts</title></rect>
<rect x="441" y="72" width="10" height="10" fill="#9be9a8" rx="2" ry="2"><title>2025-08-14: 2 posts</title></rect>
<rect x="441" y="85" width="10" height="10" fill="#9be9a8" rx="2" ry="2"><title>2025-08-15: 2 posts</title></rect>
<rect x="441" y="98" width="10" height="10" fill="#40c463" rx="2" ry="2"><title>2025-08-16: 3 posts</title></rect>
<rect x="454" y="20" width="10" height="10" fill="#30a14e" rx="2" ry="2"><title>2025-08-17: 7 posts</title></rect>
<rect x="454" y="33" width="10" height="10" fill="#9be9a8" rx="2" ry="2"><title>2025-08-18: 2 posts</title></rect>
<rect x="454" y="46" width="10" height="10" fill="#9be9a8" rx="2" ry="2"><title>2025-08-19: 2 posts</title></rect>
<rect x="454" y="59" width="10" height="10" fill="#ebedf0" rx="2" ry="2"><title>2025-08-20: 0 posts</title></rect>
<rect x="454" y="72" width="10" height="10" fill="#40c463" rx="2" ry="2"><title>2025-08-21: 3 posts</title></rect>
<rect x="454" y="85" width="10" height="10" fill="#9be9a8" rx="2" ry="2"><title>2025-08-22: 1 post</title></rect>
<rect x="454" y="98" width="10" height="10" fill="#9be9a8" rx="2" ry="2"><title>2025-08-23: 1 post</title></rect>
<rect x="467" y="20" width="10" height="10" fill="#9be9a8" rx="2" ry="2"><title>2025-08-24: 1 post</title></rect>
<rect x="467" y="33" width="10" height="10" fill="#9be9a8" rx="2" ry="2"><title>2025-08-25: 2 posts</title></rect>
<rect x="467" y="46" width="10" height="10" fill="#ebedf0" rx="2" ry="2"><title>2025-08-26: 0 posts</title></rect>
<rect x="467" y="59" width="10" height="10" fill="#ebedf0" rx="2" ry="2"><title>2025-08-27: 0 posts</title></rect>
<rect x="467" y="72" width="10" height="10" fill="#40c463" rx="2" ry="2"><title>2025-08-28: 3 posts</title></rect>
<rect x="467" y="85" width="10" height="10" fill="#9be9a8" rx="2" ry="2"><title>2025-08-29: 2 posts</title></rect>
<rect x="467" y="98" width="10" height="10" fill="#9be9a8" rx="2" ry="2"><title>2025-08-30: 2 posts</title></rect>
<rect x="480" y="20" width="10" height="10" fill="#9be9a8" rx="2" ry="2"><title>2025-08-31: 1 post</title></rect>
<rect x="480" y="33" width="10" height="10" fill="#ebedf0" rx="2" ry="2"><title>2025-09-01: 0 posts</title></rect>
<rect x="480" y="46" width="10" height="10" fill="#ebedf0" rx="2" ry="2"><title>2025-09-02: 0 posts</title></rect>
<rect x="480" y="59" width="10" height="10" fill="#ebedf0" rx="2" ry="2"><title>2025-09-03: 0 posts</title></rect>
<rect x="480" y="72" width="10" height="10" fill="#ebedf0" rx="2" ry="2"><title>2025-09-04: 0 posts</title></rect>
<rect x="480" y="85" width="10" height="10" fill="#9be9a8" rx="2" ry="2"><title>2025-09-05: 1 post</title></rect>
<rect x="480" y="98" width="10" height="10" fill="#9be9a8" rx="2" ry="2"><title>2025-09-06: 1 post</title></rect>
<rect x="493" y="20" width="10" height="10" fill="#ebedf0" rx="2" ry="2"><title>2025-09-07: 0 posts</title></rect>
<rect x="493" y="33" width="10" height="10" fill="#ebedf0" rx="2" ry="2"><title>2025-09-08: 0 posts</title></rect>
<rect x="493" y="46" width="10" height="10" fill="#9be9a8" rx="2" ry="2"><title>2025-09-09: 2 posts</title></rect>
<rect x="493" y="59" width="10" height="10" fill="#ebedf0" rx="2" ry="2"><title>2025-09-10: 0 posts</title></rect>
<rect x="493" y="72" width="10" height="10" fill="#ebedf0" rx="2" ry="2"><title>2025-09-11: 0 posts</title></rect>
<rect x="493" y="85" width="10" height="10" fill="#9be9a8" rx="2" ry="2"><title>2025-09-12: 1 post</title></rect>
<rect x="493" y="98" width="10" height="10" fill="#ebedf0" rx="2" ry="2"><title>2025-09-13: 0 posts</title></rect>
<rect x="506" y="20" width="10" height="10" fill="#ebedf0" rx="2" ry="2"><title>2025-09-14: 0 posts</title></rect>
<rect x="506" y="33" width="10" height="10" fill="#9be9a8" rx="2" ry="2"><title>2025-09-15: 1 post</title></rect>
<rect x="506" y="46" width="10" height="10" fill="#ebedf0" rx="2" ry="2"><title>2025-09-16: 0 posts</title></rect>
<rect x="506" y="59" width="10" height="10" fill="#ebedf0" rx="2" ry="2"><title>2025-09-17: 0 posts</title></rect>
<rect x="506" y="72" width="10" height="10" fill="#ebedf0" rx="2" ry="2"><title>2025-09-18: 0 posts</title></rect>
<rect x="506" y="85" width="10" height="10" fill="#9be9a8" rx="2" ry="2"><title>2025-09-19: 1 post</title></rect>
<rect x="506" y="98" width="10" height="10" fill="#ebedf0" rx="2" ry="2"><title>2025-09-20: 0 posts</title></rect>
<rect x="519" y="20" width="10" height="10" fill="#9be9a8" rx="2" ry="2"><title>2025-09-21: 2 posts</title></rect>
<rect x="519" y="33" width="10" height="10" fill="#ebedf0" rx="2" ry="2"><title>2025-09-22: 0 posts</title></rect>
<rect x="519" y="46" width="10" height="10" fill="#ebedf0" rx="2" ry="2"><title>2025-09-23: 0 posts</title></rect>
<rect x="519" y="59" width="10" height="10" fill="#ebedf0" rx="2" ry="2"><title>2025-09-24: 0 posts</title></rect>
<rect x="519" y="72" width="10" height="10" fill="#9be9a8" rx="2" ry="2"><title>2025-09-25: 1 post</title></rect>
<rect x="519" y="85" width="10" height="10" fill="#ebedf0" rx="2" ry="2"><title>2025-09-26: 0 posts</title></rect>
<rect x="519" y="98" width="10" height="10" fill="#ebedf0" rx="2" ry="2"><title>2025-09-27: 0 posts</title></rect>
<rect x="532" y="20" width="10" height="10" fill="#9be9a8" rx="2" ry="2"><title>2025-09-28: 1 post</title></rect>
<rect x="532" y="33" width="10" height="10" fill="#ebedf0" rx="2" ry="2"><title>2025-09-29: 0 posts</title></rect>
<rect x="532" y="46" width="10" height="10" fill="#ebedf0" rx="2" ry="2"><title>2025-09-30: 0 posts</title></rect>
<rect x="532" y="59" width="10" height="10" fill="#ebedf0" rx="2" ry="2"><title>2025-10-01: 0 posts</title></rect>
<rect x="532" y="72" width="10" height="10" fill="#9be9a8" rx="2" ry="2"><title>2025-10-02: 1 post</title></rect>
<rect x="532" y="85" width="10" height="10" fill="#ebedf0" rx="2" ry="2"><title>2025-10-03: 0 posts</title></rect>
<rect x="532" y="98" width="10" height="10" fill="#ebedf0" rx="2" ry="2"><title>2025-10-04: 0 posts</title></rect>
<rect x="545" y="20" width="10" height="10" fill="#ebedf0" rx="2" ry="2"><title>2025-10-05: 0 posts</title></rect>
<rect x="545" y="33" width="10" height="10" fill="#ebedf0" rx="2" ry="2"><title>2025-10-06: 0 posts</title></rect>
<rect x="545" y="46" width="10" height="10" fill="#9be9a8" rx="2" ry="2"><title>2025-10-07: 1 post</title></rect>
<rect x="545" y="59" width="10" height="10" fill="#9be9a8" rx="2" ry="2"><title>2025-10-08: 1 post</title></rect>
<rect x="545" y="72" width="10" height="10" fill="#ebedf0" rx="2" ry="2"><title>2025-10-09: 0 posts</title></rect>
<rect x="545" y="85" width="10" height="10" fill="#ebedf0" rx="2" ry="2"><title>2025-10-10: 0 posts</title></rect>
<rect x="545" y="98" width="10" height="10" fill="#ebedf0" rx="2" ry="2"><title>2025-10-11: 0 posts</title></rect>
<rect x="558" y="20" width="10" height="10" fill="#ebedf0" rx="2" ry="2"><title>2025-10-12: 0 posts</title></rect>
<rect x="558" y="33" width="10" height="10" fill="#ebedf0" rx="2" ry="2"><title>2025-10-13: 0 posts</title></rect>
<rect x="558" y="46" width="10" height="10" fill="#ebedf0" rx="2" ry="2"><title>2025-10-14: 0 posts</title></rect>
<rect x="558" y="59" width="10" height="10" fill="#9be9a8" rx="2" ry="2"><title>2025-10-15: 1 post</title></rect>
<rect x="558" y="72" width="10" height="10" fill="#9be9a8" rx="2" ry="2"><title>2025-10-16: 1 post</title></rect>
<rect x="558" y="85" width="10" height="10" fill="#ebedf0" rx="2" ry="2"><title>2025-10-17: 0 posts</title></rect>
<rect x="558" y="98" width="10" height="10" fill="#ebedf0" rx="2" ry="2"><title>2025-10-18: 0 posts</title></rect>
<rect x="571" y="20" width="10" height="10" fill="#ebedf0" rx="2" ry="2"><title>2025-10-19: 0 posts</title></rect>
<rect x="571" y="33" width="10" height="10" fill="#9be9a8" rx="2" ry="2"><title>2025-10-20: 1 post</title></rect>
<rect x="571" y="46" width="10" height="10" fill="#9be9a8" rx="2" ry="2"><title>2025-10-21: 1 post</title></rect>
<rect x="571" y="59" width="10" height="10" fill="#ebedf0" rx="2" ry="2"><title>2025-10-22: 0 posts</title></rect>
<rect x="571" y="72" width="10" height="10" fill="#ebedf0" rx="2" ry="2"><title>2025-10-23: 0 posts</title></rect>
<rect x="571" y="85" width="10" height="10" fill="#9be9a8" rx="2" ry="2"><title>2025-10-24: 1 post</title></rect>
<rect x="571" y="98" width="10" height="10" fill="#9be9a8" rx="2" ry="2"><title>2025-10-25: 1 post</title></rect>
<rect x="584" y="20" width="10" height="10" fill="#9be9a8" rx="2" ry="2"><title>2025-10-26: 1 post</title></rect>
<rect x="584" y="33" width="10" height="10" fill="#9be9a8" rx="2" ry="2"><title>2025-10-27: 1 post</title></rect>
<rect x="584" y="46" width="10" height="10" fill="#9be9a8" rx="2" ry="2"><title>2025-10-28: 1 post</title></rect>
<rect x="584" y="59" width="10" height="10" fill="#9be9a8" rx="2" ry="2"><title>2025-10-29: 2 posts</title></rect>
<rect x="584" y="72" width="10" height="10" fill="#ebedf0" rx="2" ry="2"><title>2025-10-30: 0 posts</title></rect>
<rect x="584" y="85" width="10" height="10" fill="#9be9a8" rx="2" ry="2"><title>2025-10-31: 1 post</title></rect>
<rect x="584" y="98" width="10" height="10" fill="#9be9a8" rx="2" ry="2"><title>2025-11-01: 1 post</title></rect>
<rect x="597" y="20" width="10" height="10" fill="#9be9a8" rx="2" ry="2"><title>2025-11-02: 1 post</title></rect>
<rect x="597" y="33" width="10" height="10" fill="#40c463" rx="2" ry="2"><title>2025-11-03: 3 posts</title></rect>
<rect x="597" y="46" width="10" height="10" fill="#9be9a8" rx="2" ry="2"><title>2025-11-04: 1 post</title></rect>
<rect x="597" y="59" width="10" height="10" fill="#9be9a8" rx="2" ry="2"><title>2025-11-05: 1 post</title></rect>
<rect x="597" y="72" width="10" height="10" fill="#ebedf0" rx="2" ry="2"><title>2025-11-06: 0 posts</title></rect>
<rect x="597" y="85" width="10" height="10" fill="#ebedf0" rx="2" ry="2"><title>2025-11-07: 0 posts</title></rect>
<rect x="597" y="98" width="10" height="10" fill="#ebedf0" rx="2" ry="2"><title>2025-11-08: 0 posts</title></rect>
<rect x="610" y="20" width="10" height="10" fill="#ebedf0" rx="2" ry="2"><title>2025-11-09: 0 posts</title></rect>
<rect x="610" y="33" width="10" height="10" fill="#ebedf0" rx="2" ry="2"><title>2025-11-10: 0 posts</title></rect>
<rect x="610" y="46" width="10" height="10" fill="#9be9a8" rx="2" ry="2"><title>2025-11-11: 2 posts</title></rect>
<rect x="610" y="59" width="10" height="10" fill="#9be9a8" rx="2" ry="2"><title>2025-11-12: 2 posts</title></rect>
<rect x="610" y="72" width="10" height="10" fill="#9be9a8" rx="2" ry="2"><title>2025-11-13: 1 post</title></rect>
<rect x="610" y="85" width="10" height="10" fill="#9be9a8" rx="2" ry="2"><title>2025-11-14: 1 post</title></rect>
<rect x="610" y="98" width="10" height="10" fill="#ebedf0" rx="2" ry="2"><title>2025-11-15: 0 posts</title></rect>
<rect x="623" y="20" width="10" height="10" fill="#ebedf0" rx="2" ry="2"><title>2025-11-16: 0 posts</title></rect>
<rect x="623" y="33" width="10" height="10" fill="#ebedf0" rx="2" ry="2"><title>2025-11-17: 0 posts</title></rect>
<rect x="623" y="46" width="10" height="10" fill="#ebedf0" rx="2" ry="2"><title>2025-11-18: 0 posts</title></rect>
<rect x="623" y="59" width="10" height="10" fill="#ebedf0" rx="2" ry="2"><title>2025-11-19: 0 posts</title></rect>
<rect x="623" y="72" width="10" height="10" fill="#ebedf0" rx="2" ry="2"><title>2025-11-20: 0 posts</title></rect>
<rect x="623" y="85" width="10" height="10" fill="#ebedf0" rx="2" ry="2"><title>2025-11-21: 0 posts</title></rect>
<rect x="623" y="98" width="10" height="10" fill="#ebedf0" rx="2" ry="2"><title>2025-11-22: 0 posts</title></rect>
<rect x="636" y="20" width="10" height="10" fill="#ebedf0" rx="2" ry="2"><title>2025-11-23: 0 posts</title></rect>
<rect x="636" y="33" width="10" height="10" fill="#ebedf0" rx="2" ry="2"><title>2025-11-24: 0 posts</title></rect>
<rect x="636" y="46" width="10" height="10" fill="#ebedf0" rx="2" ry="2"><title>2025-11-25: 0 posts</title></rect>
<rect x="636" y="59" width="10" height="10" fill="#ebedf0" rx="2" ry="2"><title>2025-11-26: 0 posts</title></rect>
<rect x="636" y="72" width="10" height="10" fill="#ebedf0" rx="2" ry="2"><title>2025-11-27: 0 posts</title></rect>
<rect x="636" y="85" width="10" height="10" fill="#ebedf0" rx="2" ry="2"><title>2025-11-28: 0 posts</title></rect>
<rect x="636" y="98" width="10" height="10" fill="#ebedf0" rx="2" ry="2"><title>2025-11-29: 0 posts</title></rect>
<rect x="649" y="20" width="10" height="10" fill="#ebedf0" rx="2" ry="2"><title>2025-11-30: 0 posts</title></rect>
<rect x="649" y="33" width="10" height="10" fill="#ebedf0" rx="2" ry="2"><title>2025-12-01: 0 posts</title></rect>
<rect x="649" y="46" width="10" height="10" fill="#ebedf0" rx="2" ry="2"><title>2025-12-02: 0 posts</title></rect>
<rect x="649" y="59" width="10" height="10" fill="#ebedf0" rx="2" ry="2"><title>2025-12-03: 0 posts</title></rect>
<rect x="649" y="72" width="10" height="10" fill="#ebedf0" rx="2" ry="2"><title>2025-12-04: 0 posts</title></rect>
<rect x="649" y="85" width="10" height="10" fill="#ebedf0" rx="2" ry="2"><title>2025-12-05: 0 posts</title></rect>
<rect x="649" y="98" width="10" height="10" fill="#ebedf0" rx="2" ry="2"><title>2025-12-06: 0 posts</title></rect>
<rect x="662" y="20" width="10" height="10" fill="#ebedf0" rx="2" ry="2"><title>2025-12-07: 0 posts</title></rect>
<rect x="662" y="33" width="10" height="10" fill="#ebedf0" rx="2" ry="2"><title>2025-12-08: 0 posts</title></rect>
<rect x="662" y="46" width="10" height="10" fill="#ebedf0" rx="2" ry="2"><title>2025-12-09: 0 posts</title></rect>
<rect x="662" y="59" width="10" height="10" fill="#ebedf0" rx="2" ry="2"><title>2025-12-10: 0 posts</title></rect>
<rect x="662" y="72" width="10" height="10" fill="#ebedf0" rx="2" ry="2"><title>2025-12-11: 0 posts</title></rect>
<rect x="662" y="85" width="10" height="10" fill="#ebedf0" rx="2" ry="2"><title>2025-12-12: 0 posts</title></rect>
<rect x="662" y="98" width="10" height="10" fill="#ebedf0" rx="2" ry="2"><title>2025-12-13: 0 posts</title></rect>
<rect x="675" y="20" width="10" height="10" fill="#ebedf0" rx="2" ry="2"><title>2025-12-14: 0 posts</title></rect>
<rect x="675" y="33" width="10" height="10" fill="#ebedf0" rx="2" ry="2"><title>2025-12-15: 0 posts</title></rect>
<rect x="675" y="46" width="10" height="10" fill="#ebedf0" rx="2" ry="2"><title>2025-12-16: 0 posts</title></rect>
<rect x="675" y="59" width="10" height="10" fill="#ebedf0" rx="2" ry="2"><title>2025-12-17: 0 posts</title></rect>
<rect x="675" y="72" width="10" height="10" fill="#ebedf0" rx="2" ry="2"><title>2025-12-18: 0 posts</title></rect>
<rect x="675" y="85" width="10" height="10" fill="#ebedf0" rx="2" ry="2"><title>2025-12-19: 0 posts</title></rect>
<rect x="675" y="98" width="10" height="10" fill="#ebedf0" rx="2" ry="2"><title>2025-12-20: 0 posts</title></rect>
<rect x="688" y="20" width="10" height="10" fill="#ebedf0" rx="2" ry="2"><title>2025-12-21: 0 posts</title></rect>
<rect x="688" y="33" width="10" height="10" fill="#ebedf0" rx="2" ry="2"><title>2025-12-22: 0 posts</title></rect>
<rect x="688" y="46" width="10" height="10" fill="#ebedf0" rx="2" ry="2"><title>2025-12-23: 0 posts</title></rect>
<rect x="688" y="59" width="10" height="10" fill="#ebedf0" rx="2" ry="2"><title>2025-12-24: 0 posts</title></rect>
<rect x="688" y="72" width="10" height="10" fill="#ebedf0" rx="2" ry="2"><title>2025-12-25: 0 posts</title></rect>
<rect x="688" y="85" width="10" height="10" fill="#ebedf0" rx="2" ry="2"><title>2025-12-26: 0 posts</title></rect>
<rect x="688" y="98" width="10" height="10" fill="#ebedf0" rx="2" ry="2"><title>2025-12-27: 0 posts</title></rect>
<rect x="701" y="20" width="10" height="10" fill="#ebedf0" rx="2" ry="2"><title>2025-12-28: 0 posts</title></rect>
<rect x="701" y="33" width="10" height="10" fill="#ebedf0" rx="2" ry="2"><title>2025-12-29: 0 posts</title></rect>
<rect x="701" y="46" width="10" height="10" fill="#ebedf0" rx="2" ry="2"><title>2025-12-30: 0 posts</title></rect>
<rect x="701" y="59" width="10" height="10" fill="#ebedf0" rx="2" ry="2"><title>2025-12-31: 0 posts</title></rect>
<text x="77" y="12" class="month-label">Feb</text>
<text x="129" y="12" class="month-label">Mar</text>
<text x="194" y="12" class="month-label">Apr</text>
<text x="246" y="12" class="month-label">May</text>
<text x="311" y="12" class="month-label">Jun</text>
<text x="363" y="12" class="month-label">Jul</text>
<text x="415" y="12" class="month-label">Aug</text>
<text x="480" y="12" class="month-label">Sep</text>
<text x="532" y="12" class="month-label">Oct</text>
<text x="584" y="12" class="month-label">Nov</text>
<text x="649" y="12" class="month-label">Dec</text>
</svg>